<svg width="28" height="21" viewBox="0 0 28 21" fill="none" xmlns="http://www.w3.org/2000/svg">
<g clip-path="url(#clip0_101_6142)">
<path d="M0 14H28V21H0V14Z" fill="#1EB53A"/>
<path d="M0 0H28V7H0V0Z" fill="#0099B5"/>
<path d="M0 6.72H28V14.28H0V6.72Z" fill="#CE1126"/>
<path d="M0 7.14H28V13.86H0V7.14Z" fill="white"/>
<path d="M5.87986 5.88C7.27162 5.88 8.39986 4.75175 8.39986 3.36C8.39986 1.96824 7.27162 0.839996 5.87986 0.839996C4.48811 0.839996 3.35986 1.96824 3.35986 3.36C3.35986 4.75175 4.48811 5.88 5.87986 5.88Z" fill="white"/>
<path d="M6.7202 5.88C8.11195 5.88 9.2402 4.75175 9.2402 3.36C9.2402 1.96824 8.11195 0.839996 6.7202 0.839996C5.32844 0.839996 4.2002 1.96824 4.2002 3.36C4.2002 4.75175 5.32844 5.88 6.7202 5.88Z" fill="#0099B5"/>
<path d="M11.4233 4.87288L11.2637 5.35168L11.5073 5.43568" fill="white"/>
<path d="M11.4234 4.87288L11.583 5.35168L11.3394 5.43568" fill="white"/>
<path d="M11.9028 5.22114L11.3981 5.21731L11.3935 5.47494" fill="white"/>
<path d="M11.9028 5.22114L11.4968 5.52088L11.3416 5.31516" fill="white"/>
<path d="M10.9439 5.22114L11.3499 5.52088L11.5051 5.31516" fill="white"/>
<path d="M10.9438 5.22114L11.4485 5.21731L11.4531 5.47494" fill="white"/>
<path d="M11.7195 5.78462L11.5672 5.30345L11.3208 5.37868" fill="white"/>
<path d="M11.7195 5.78462L11.3089 5.49108L11.4566 5.27993" fill="white"/>
<path d="M11.1272 5.78451L11.5378 5.49098L11.3901 5.27987" fill="white"/>
<path d="M11.1272 5.78462L11.2795 5.30345L11.5259 5.37868" fill="white"/>
<path d="M11.4233 2.85689L11.2637 3.33569L11.5073 3.41969" fill="white"/>
<path d="M11.4234 2.85689L11.583 3.33569L11.3394 3.41969" fill="white"/>
<path d="M11.9028 3.20515L11.3981 3.20132L11.3935 3.45895" fill="white"/>
<path d="M11.9028 3.20514L11.4968 3.50489L11.3416 3.29917" fill="white"/>
<path d="M10.9439 3.20514L11.3499 3.50489L11.5051 3.29917" fill="white"/>
<path d="M10.9438 3.20515L11.4485 3.20132L11.4531 3.45895" fill="white"/>
<path d="M11.7195 3.76863L11.5672 3.28746L11.3208 3.36269" fill="white"/>
<path d="M11.7195 3.76863L11.3089 3.47508L11.4566 3.26394" fill="white"/>
<path d="M11.1272 3.76852L11.5378 3.47499L11.3901 3.26388" fill="white"/>
<path d="M11.1272 3.76863L11.2795 3.28746L11.5259 3.36269" fill="white"/>
<path d="M11.4233 0.840881L11.2637 1.31968L11.5073 1.40368" fill="white"/>
<path d="M11.4234 0.840881L11.583 1.31968L11.3394 1.40368" fill="white"/>
<path d="M11.9028 1.18914L11.3981 1.18531L11.3935 1.44295" fill="white"/>
<path d="M11.9028 1.18914L11.4968 1.48888L11.3416 1.28316" fill="white"/>
<path d="M10.9439 1.18914L11.3499 1.48888L11.5051 1.28316" fill="white"/>
<path d="M10.9438 1.18914L11.4485 1.18531L11.4531 1.44295" fill="white"/>
<path d="M11.7195 1.75262L11.5672 1.27146L11.3208 1.34668" fill="white"/>
<path d="M11.7195 1.75263L11.3089 1.45908L11.4566 1.24794" fill="white"/>
<path d="M11.1272 1.75252L11.5378 1.45899L11.3901 1.24787" fill="white"/>
<path d="M11.1272 1.75262L11.2795 1.27146L11.5259 1.34668" fill="white"/>
<path d="M13.4389 4.87288L13.2793 5.35168L13.5229 5.43568" fill="white"/>
<path d="M13.439 4.87288L13.5986 5.35168L13.355 5.43568" fill="white"/>
<path d="M13.9185 5.22114L13.4138 5.21731L13.4092 5.47494" fill="white"/>
<path d="M13.9185 5.22114L13.5124 5.52088L13.3572 5.31516" fill="white"/>
<path d="M12.9595 5.22114L13.3655 5.52088L13.5207 5.31516" fill="white"/>
<path d="M12.9595 5.22114L13.4642 5.21731L13.4688 5.47494" fill="white"/>
<path d="M13.7351 5.78462L13.5828 5.30345L13.3364 5.37868" fill="white"/>
<path d="M13.7351 5.78462L13.3245 5.49108L13.4722 5.27993" fill="white"/>
<path d="M13.1428 5.78451L13.5534 5.49098L13.4057 5.27987" fill="white"/>
<path d="M13.1428 5.78462L13.2951 5.30345L13.5416 5.37868" fill="white"/>
<path d="M13.4389 2.85689L13.2793 3.33569L13.5229 3.41969" fill="white"/>
<path d="M13.439 2.85689L13.5986 3.33569L13.355 3.41969" fill="white"/>
<path d="M13.9185 3.20515L13.4138 3.20132L13.4092 3.45895" fill="white"/>
<path d="M13.9185 3.20514L13.5124 3.50489L13.3572 3.29917" fill="white"/>
<path d="M12.9595 3.20514L13.3655 3.50489L13.5207 3.29917" fill="white"/>
<path d="M12.9595 3.20515L13.4642 3.20132L13.4688 3.45895" fill="white"/>
<path d="M13.7351 3.76863L13.5828 3.28746L13.3364 3.36269" fill="white"/>
<path d="M13.7351 3.76863L13.3245 3.47508L13.4722 3.26394" fill="white"/>
<path d="M13.1428 3.76852L13.5534 3.47499L13.4057 3.26388" fill="white"/>
<path d="M13.1428 3.76863L13.2951 3.28746L13.5416 3.36269" fill="white"/>
<path d="M13.4389 0.840881L13.2793 1.31968L13.5229 1.40368" fill="white"/>
<path d="M13.439 0.840881L13.5986 1.31968L13.355 1.40368" fill="white"/>
<path d="M13.9185 1.18914L13.4138 1.18531L13.4092 1.44295" fill="white"/>
<path d="M13.9185 1.18914L13.5124 1.48888L13.3572 1.28316" fill="white"/>
<path d="M12.9595 1.18914L13.3655 1.48888L13.5207 1.28316" fill="white"/>
<path d="M12.9595 1.18914L13.4642 1.18531L13.4688 1.44295" fill="white"/>
<path d="M13.7351 1.75262L13.5828 1.27146L13.3364 1.34668" fill="white"/>
<path d="M13.7351 1.75263L13.3245 1.45908L13.4722 1.24794" fill="white"/>
<path d="M13.1428 1.75252L13.5534 1.45899L13.4057 1.24787" fill="white"/>
<path d="M13.1428 1.75262L13.2951 1.27146L13.5416 1.34668" fill="white"/>
<path d="M15.455 4.87288L15.2954 5.35168L15.539 5.43568" fill="white"/>
<path d="M15.4551 4.87288L15.6147 5.35168L15.3711 5.43568" fill="white"/>
<path d="M15.9346 5.22114L15.4299 5.21731L15.4253 5.47494" fill="white"/>
<path d="M15.9346 5.22114L15.5285 5.52088L15.3734 5.31516" fill="white"/>
<path d="M14.9756 5.22114L15.3816 5.52088L15.5368 5.31516" fill="white"/>
<path d="M14.9756 5.22114L15.4803 5.21731L15.4849 5.47494" fill="white"/>
<path d="M15.7513 5.78462L15.5989 5.30345L15.3525 5.37868" fill="white"/>
<path d="M15.7512 5.78462L15.3406 5.49108L15.4883 5.27993" fill="white"/>
<path d="M15.159 5.78451L15.5696 5.49098L15.4218 5.27987" fill="white"/>
<path d="M15.1589 5.78462L15.3112 5.30345L15.5577 5.37868" fill="white"/>
<path d="M15.455 2.85689L15.2954 3.33569L15.539 3.41969" fill="white"/>
<path d="M15.4551 2.85689L15.6147 3.33569L15.3711 3.41969" fill="white"/>
<path d="M15.9346 3.20515L15.4299 3.20132L15.4253 3.45895" fill="white"/>
<path d="M15.9346 3.20514L15.5285 3.50489L15.3734 3.29917" fill="white"/>
<path d="M14.9756 3.20514L15.3816 3.50489L15.5368 3.29917" fill="white"/>
<path d="M14.9756 3.20515L15.4803 3.20132L15.4849 3.45895" fill="white"/>
<path d="M15.7513 3.76863L15.5989 3.28746L15.3525 3.36269" fill="white"/>
<path d="M15.7512 3.76863L15.3406 3.47508L15.4883 3.26394" fill="white"/>
<path d="M15.159 3.76852L15.5696 3.47499L15.4218 3.26388" fill="white"/>
<path d="M15.1589 3.76863L15.3112 3.28746L15.5577 3.36269" fill="white"/>
<path d="M15.455 0.840881L15.2954 1.31968L15.539 1.40368" fill="white"/>
<path d="M15.4551 0.840881L15.6147 1.31968L15.3711 1.40368" fill="white"/>
<path d="M15.9346 1.18914L15.4299 1.18531L15.4253 1.44295" fill="white"/>
<path d="M15.9346 1.18914L15.5285 1.48888L15.3734 1.28316" fill="white"/>
<path d="M14.9756 1.18914L15.3816 1.48888L15.5368 1.28316" fill="white"/>
<path d="M14.9756 1.18914L15.4803 1.18531L15.4849 1.44295" fill="white"/>
<path d="M15.7513 1.75262L15.5989 1.27146L15.3525 1.34668" fill="white"/>
<path d="M15.7512 1.75263L15.3406 1.45908L15.4883 1.24794" fill="white"/>
<path d="M15.159 1.75252L15.5696 1.45899L15.4218 1.24787" fill="white"/>
<path d="M15.1589 1.75262L15.3112 1.27146L15.5577 1.34668" fill="white"/>
<path d="M7.39105 4.87288L7.23145 5.35168L7.47505 5.43568" fill="white"/>
<path d="M7.39118 4.87288L7.55078 5.35168L7.30718 5.43568" fill="white"/>
<path d="M7.87061 5.22114L7.36592 5.21731L7.36131 5.47494" fill="white"/>
<path d="M7.8706 5.22114L7.46456 5.52088L7.30939 5.31516" fill="white"/>
<path d="M6.91162 5.22114L7.31767 5.52088L7.47284 5.31516" fill="white"/>
<path d="M6.91162 5.22114L7.4163 5.21731L7.42092 5.47494" fill="white"/>
<path d="M7.68729 5.78462L7.53497 5.30345L7.28852 5.37868" fill="white"/>
<path d="M7.68722 5.78462L7.27667 5.49108L7.42438 5.27993" fill="white"/>
<path d="M7.09499 5.78451L7.50559 5.49098L7.35788 5.27987" fill="white"/>
<path d="M7.09494 5.78462L7.24725 5.30345L7.4937 5.37868" fill="white"/>
<path d="M9.40716 4.87288L9.24756 5.35168L9.49116 5.43568" fill="white"/>
<path d="M9.40729 4.87288L9.56689 5.35168L9.32329 5.43568" fill="white"/>
<path d="M9.88672 5.22114L9.38204 5.21731L9.37742 5.47494" fill="white"/>
<path d="M9.88672 5.22114L9.48067 5.52088L9.3255 5.31516" fill="white"/>
<path d="M8.92774 5.22114L9.33378 5.52088L9.48895 5.31516" fill="white"/>
<path d="M8.92773 5.22114L9.43242 5.21731L9.43703 5.47494" fill="white"/>
<path d="M9.7034 5.78462L9.55109 5.30345L9.30464 5.37868" fill="white"/>
<path d="M9.70334 5.78462L9.29279 5.49108L9.44049 5.27993" fill="white"/>
<path d="M9.11111 5.78451L9.52171 5.49098L9.374 5.27987" fill="white"/>
<path d="M9.11105 5.78462L9.26337 5.30345L9.50982 5.37868" fill="white"/>
<path d="M9.40716 2.85689L9.24756 3.33569L9.49116 3.41969" fill="white"/>
<path d="M9.40729 2.85689L9.56689 3.33569L9.32329 3.41969" fill="white"/>
<path d="M9.88672 3.20515L9.38204 3.20132L9.37742 3.45895" fill="white"/>
<path d="M9.88672 3.20514L9.48067 3.50489L9.3255 3.29917" fill="white"/>
<path d="M8.92774 3.20514L9.33378 3.50489L9.48895 3.29917" fill="white"/>
<path d="M8.92773 3.20515L9.43242 3.20132L9.43703 3.45895" fill="white"/>
<path d="M9.7034 3.76863L9.55109 3.28746L9.30464 3.36269" fill="white"/>
<path d="M9.70334 3.76863L9.29279 3.47508L9.44049 3.26394" fill="white"/>
<path d="M9.11111 3.76852L9.52171 3.47499L9.374 3.26388" fill="white"/>
<path d="M9.11105 3.76863L9.26337 3.28746L9.50982 3.36269" fill="white"/>
</g>
<defs>
<clipPath id="clip0_101_6142">
<rect width="28" height="21" rx="2" fill="white"/>
</clipPath>
</defs>
</svg>
