<svg width="20" height="20" viewBox="0 0 20 20" fill="none" xmlns="http://www.w3.org/2000/svg">
<g clip-path="url(#clip0_101_6500)">
<path d="M4.66298 19.4002H0.713171V6.70864H4.66298V19.4002Z" fill="#788089"/>
<path d="M14.7208 6.39302C18.72 6.39302 19.4575 9.02028 19.4575 12.4381L19.4557 19.4002H15.51V13.2288C15.51 11.7571 15.4836 9.86255 13.4577 9.86255C11.4026 9.86256 11.0882 11.466 11.0882 13.1215V19.3999H7.14227V6.70864H10.9304V8.44302H10.9833C11.3624 7.79567 11.9103 7.26321 12.5684 6.9022C13.2266 6.54119 13.9704 6.3652 14.7208 6.39302Z" fill="#788089"/>
<path d="M2.24266 0.443992C2.68681 0.35569 3.14729 0.401063 3.56571 0.57407C3.9841 0.747093 4.34179 1.04006 4.59344 1.41606C4.84512 1.7921 4.9795 2.23426 4.97958 2.68657C4.97963 2.98689 4.92038 3.28428 4.80536 3.56177C4.69033 3.83924 4.52166 4.09136 4.30907 4.30376C4.09649 4.51614 3.84407 4.68468 3.5663 4.79966C3.28852 4.91462 2.9908 4.97382 2.69012 4.97387C2.23725 4.97395 1.79446 4.83994 1.41786 4.58872C1.04127 4.3375 0.747685 3.98039 0.574303 3.56255C0.400924 3.14471 0.35557 2.68488 0.443835 2.24126C0.532104 1.79764 0.750048 1.39005 1.0702 1.07016C1.39038 0.750275 1.7985 0.532313 2.24266 0.443992Z" fill="#788089"/>
</g>
<defs>
<clipPath id="clip0_101_6500">
<rect width="20" height="20" fill="white"/>
</clipPath>
</defs>
</svg>
