<svg width="62" height="62" viewBox="0 0 62 62" fill="none" xmlns="http://www.w3.org/2000/svg">
<path d="M4.125 23.5083C4.125 16.636 4.125 13.1999 5.46244 10.575C6.63889 8.26609 8.51609 6.38889 10.825 5.21244C13.4499 3.875 16.886 3.875 23.7583 3.875H38.7417C45.614 3.875 49.0501 3.875 51.675 5.21244C53.9838 6.38889 55.8612 8.26609 57.0376 10.575C58.375 13.1999 58.375 16.636 58.375 23.5083V38.4917C58.375 45.364 58.375 48.8001 57.0376 51.425C55.8612 53.7338 53.9838 55.6112 51.675 56.7876C49.0501 58.125 45.614 58.125 38.7417 58.125H23.7583C16.886 58.125 13.4499 58.125 10.825 56.7876C8.51609 55.6112 6.63889 53.7338 5.46244 51.425C4.125 48.8001 4.125 45.364 4.125 38.4917V23.5083Z" fill="#001E36"/>
<path d="M15.75 43.6253V19.7691C15.75 19.6069 15.8178 19.5141 15.976 19.5141C18.3119 19.5141 20.6468 19.375 22.9833 19.375C26.7746 19.375 30.8799 20.6713 32.3189 24.6378C32.6579 25.6114 32.8387 26.6083 32.8387 27.6516C32.8387 29.6454 32.3867 31.2914 31.4825 32.5898C28.9568 36.2164 24.5792 36.1601 20.6551 36.1601V43.602C20.6858 43.8224 20.498 43.9266 20.316 43.9266H16.0213C15.8404 43.9266 15.75 43.8339 15.75 43.6253ZM20.6777 23.9886V31.7784C22.2336 31.8923 23.8618 31.9047 25.3568 31.4074C27.0071 30.9313 27.911 29.5026 27.911 27.7907C27.9569 26.3319 27.162 24.9323 25.8089 24.4059C24.3318 23.7917 22.272 23.7549 20.6777 23.9886Z" fill="#31A8FF"/>
<path d="M46.9373 30.2393C46.2534 29.8788 45.5249 29.6152 44.772 29.4554C43.8043 29.2277 39.9878 28.4303 39.9864 30.4258C40.0202 31.54 41.7888 32.0859 42.5701 32.4042C45.3133 33.3459 48.4176 35.0295 48.3566 38.4136C48.4404 42.6265 44.3587 44.3107 40.8597 44.3111C39.0381 44.33 37.1406 44.0479 35.4735 43.2659C35.3144 43.1817 35.212 43.0016 35.2188 42.8181V38.7869C35.2009 38.6252 35.3743 38.484 35.51 38.6003C37.1433 39.588 39.0794 40.0676 40.9688 40.0933C41.803 40.0933 43.4562 40.0125 43.4436 38.7869C43.4436 37.6107 41.466 37.07 40.6777 36.7713C39.5351 36.3634 38.4515 35.7983 37.4569 35.0916C36.0671 34.1002 35.1951 32.5106 35.2188 30.7618C35.2107 26.795 38.968 25.0145 42.3518 25.0136C43.9337 25.0006 45.6324 25.1177 47.105 25.7602C47.3167 25.8225 47.3606 26.0455 47.3597 26.2454V30.0154C47.3731 30.2493 47.1133 30.329 46.9373 30.2393Z" fill="#31A8FF"/>
</svg>
