<svg width="20" height="20" viewBox="0 0 20 20" fill="none" xmlns="http://www.w3.org/2000/svg">
<g clip-path="url(#clip0_101_6494)">
<path d="M18.4748 1.51666L17.5998 0.758325C16.5915 -0.250008 14.9581 -0.250008 13.9498 0.758325C13.9248 0.783325 12.3831 2.79166 12.3831 2.79166C11.4331 3.79166 11.4331 5.36666 12.3831 6.35833L13.3498 7.57499C12.1331 10.3333 10.2415 12.2333 7.57479 13.3667L6.35812 12.3917C5.36646 11.4333 3.78312 11.4333 2.79146 12.3917C2.79146 12.3917 0.783123 13.9333 0.758123 13.9583C-0.250211 14.9667 -0.250211 16.6 0.716456 17.5667L1.54979 18.525C2.50812 19.4833 3.79979 20.0083 5.19979 20.0083C11.5665 20.0083 19.9998 11.5667 19.9998 5.20833C19.9998 3.81666 19.4748 2.51666 18.4748 1.52499V1.51666ZM5.19979 18.3333C4.24979 18.3333 3.37479 17.9833 2.77479 17.375L1.94146 16.4167C1.59979 16.075 1.58312 15.5167 1.90812 15.1583C1.90812 15.1583 3.89979 13.625 3.92479 13.6C4.26646 13.2583 4.86646 13.2583 5.21646 13.6C5.24146 13.625 6.91646 14.9667 6.91646 14.9667C7.14979 15.15 7.45812 15.2 7.73312 15.0917C11.1831 13.775 13.6581 11.3083 15.0831 7.74999C15.1915 7.47499 15.1498 7.15833 14.9581 6.91666C14.9581 6.91666 13.6165 5.23333 13.5998 5.21666C13.2415 4.85833 13.2415 4.28333 13.5998 3.92499C13.6248 3.89999 15.1581 1.90833 15.1581 1.90833C15.5165 1.58333 16.0748 1.59166 16.4581 1.97499L17.3331 2.73333C17.9748 3.37499 18.3331 4.24999 18.3331 5.19999C18.3331 11 10.1915 18.3333 5.19979 18.3333Z" fill="#788089"/>
</g>
<defs>
<clipPath id="clip0_101_6494">
<rect width="20" height="20" fill="white"/>
</clipPath>
</defs>
</svg>
