<svg width="100" height="100" viewBox="0 0 100 100" fill="none" xmlns="http://www.w3.org/2000/svg">
<g clip-path="url(#clip0_101_6484)">
<path d="M85.1834 85.1603H70.372V61.9944C70.372 56.4703 70.2733 49.359 62.6686 49.359C54.9543 49.359 53.774 55.3778 53.774 61.5922V85.1588H38.9626V37.5202H53.1815V44.0306H53.3806C54.8036 41.6006 56.8598 39.6016 59.3303 38.2465C61.8008 36.8914 64.5931 36.2309 67.4098 36.3353C82.4217 36.3353 85.1896 46.1971 85.1896 59.0266L85.1834 85.1603ZM22.2504 31.0084C20.5505 31.0087 18.8885 30.5055 17.4749 29.5625C16.0612 28.6195 14.9594 27.279 14.3086 25.7105C13.6577 24.1421 13.4872 22.4161 13.8185 20.7508C14.1499 19.0855 14.9682 17.5558 16.1701 16.355C17.3719 15.1543 18.9033 14.3364 20.5706 14.0049C22.2378 13.6734 23.966 13.8431 25.5367 14.4925C27.1074 15.142 28.45 16.242 29.3947 17.6535C30.3394 19.065 30.8438 20.7247 30.8441 22.4225C30.8443 23.5498 30.6222 24.6661 30.1904 25.7077C29.7587 26.7493 29.1258 27.6957 28.3278 28.493C27.5298 29.2903 26.5823 29.9228 25.5396 30.3543C24.4968 30.7859 23.3792 31.0082 22.2504 31.0084ZM29.6561 85.1603H14.8293V37.5202H29.6561V85.1603ZM92.5675 0.102505H7.38664C5.45328 0.0807145 3.59025 0.826414 2.20711 2.17574C0.823961 3.52506 0.0338496 5.36762 0.0102539 7.29852V92.7246C0.033042 94.6565 0.82269 96.5003 2.20579 97.851C3.58888 99.2018 5.45232 99.9489 7.38664 99.9284H92.5675C94.5057 99.9526 96.3743 99.2076 97.7628 97.8569C99.1514 96.5062 99.9463 94.6603 99.9732 92.7246V7.29236C99.9455 5.35763 99.15 3.51297 97.7614 2.16368C96.3728 0.81439 94.5047 0.0708221 92.5675 0.0963388" fill="#0A66C2"/>
</g>
<defs>
<clipPath id="clip0_101_6484">
<rect width="100" height="100" fill="white"/>
</clipPath>
</defs>
</svg>
