<svg width="405" height="140" viewBox="0 0 405 140" fill="none" xmlns="http://www.w3.org/2000/svg">
<rect width="405" height="140" rx="20" fill="white" fill-opacity="0.2"/>
<path d="M242.153 55.32C229.587 55.32 219.534 65.4 219.534 78C219.534 90.6 229.587 100.68 242.153 100.68C254.719 100.68 264.772 90.6 264.772 78C264.772 65.4 254.719 55.32 242.153 55.32ZM242.153 91.44C234.892 91.44 228.749 85.56 228.749 78C228.749 70.44 234.613 64.56 242.153 64.56C249.413 64.56 255.557 70.44 255.557 77.72C255.557 85.28 249.692 91.44 242.153 91.44ZM292.417 66.24C285.994 66.24 280.689 71.56 280.689 78V99.56H270.915V56.72H280.689V63.44C283.481 59.24 288.228 56.72 293.255 56.72H296.326V66.24H292.417ZM194.123 56.72L201.383 86.4L209.481 56.72H218.975L206.689 99.56H196.915L189.375 69.6L181.836 99.56H172.062L159.775 56.72H169.27L177.368 86.4L184.907 56.72H194.123ZM324.809 76.32C332.07 72.4 336.258 64.84 336.258 56.44H326.764C326.764 63.72 320.9 69.32 313.919 69.32H312.523V36H302.749V99.56H312.523V79.4H313.64C314.757 79.4 315.874 79.96 316.432 80.8L330.115 99.56H341.843L324.809 76.32Z" fill="#494949"/>
<path d="M136.598 55.32C125.987 55.32 117.889 62.32 114.538 73.52C109.511 65.96 105.881 57.56 103.368 48.88H91.9188V78.56C91.9188 84.44 87.1717 89.2 81.3075 89.2C75.4434 89.2 70.6962 84.44 70.6962 78.56V49.16H59.5264V78.84C59.5264 90.88 69.3 100.96 81.5867 100.96C93.8735 100.96 103.647 91.16 103.647 78.84V73.8C105.881 78.56 108.674 83.04 111.745 87.24L104.764 120H116.492L121.519 96.2C125.987 99.28 131.292 100.96 136.877 100.96C149.443 100.96 159.496 90.88 159.496 78.28C159.217 65.68 149.164 55.32 136.598 55.32ZM136.598 89.48C131.851 89.2 127.383 87.52 123.753 84.44L124.591 79.96V79.68C125.428 74.92 128.221 66.8 136.319 66.8C142.462 66.52 147.489 71.56 147.768 77.72C148.047 83.88 143.021 88.92 136.877 89.2L136.598 89.48Z" fill="#6FDA44"/>
</svg>
