<svg width="62" height="62" viewBox="0 0 62 62" fill="none" xmlns="http://www.w3.org/2000/svg">
<path fill-rule="evenodd" clip-rule="evenodd" d="M31 31C31 26.1847 34.9035 22.2812 39.7188 22.2812C44.534 22.2812 48.4375 26.1847 48.4375 31C48.4375 35.8153 44.534 39.7188 39.7188 39.7188C34.9035 39.7188 31 35.8153 31 31Z" fill="#1ABCFE"/>
<path fill-rule="evenodd" clip-rule="evenodd" d="M13.5625 48.4375C13.5625 43.6222 17.466 39.7188 22.2812 39.7188H31V48.4375C31 53.2528 27.0965 57.1562 22.2812 57.1562C17.466 57.1562 13.5625 53.2528 13.5625 48.4375Z" fill="#0ACF83"/>
<path fill-rule="evenodd" clip-rule="evenodd" d="M31 4.84375V22.2812H39.7188C44.534 22.2812 48.4375 18.3777 48.4375 13.5625C48.4375 8.74727 44.534 4.84375 39.7188 4.84375H31Z" fill="#FF7262"/>
<path fill-rule="evenodd" clip-rule="evenodd" d="M13.5625 13.5625C13.5625 18.3777 17.466 22.2812 22.2812 22.2812H31V4.84375H22.2812C17.466 4.84375 13.5625 8.74727 13.5625 13.5625Z" fill="#F24E1E"/>
<path fill-rule="evenodd" clip-rule="evenodd" d="M13.5625 31C13.5625 35.8153 17.466 39.7188 22.2812 39.7188H31V22.2812H22.2812C17.466 22.2812 13.5625 26.1847 13.5625 31Z" fill="#A259FF"/>
</svg>
