<svg width="191" height="58" viewBox="0 0 191 58" fill="none" xmlns="http://www.w3.org/2000/svg">
<g clip-path="url(#clip0_101_6536)">
<path d="M174.812 28.1296H168.174C163.88 28.1296 161.536 31.3282 161.536 36.9029V56.8256H148.716V28.1296H143.356C139.062 28.1296 136.718 31.3282 136.718 36.9029V56.8256H123.867V17.4067H136.718V23.4078C138.849 18.6861 141.651 17.4067 145.914 17.4067H161.536V23.4078C163.667 18.6861 166.469 17.4067 170.732 17.4067H175.026L174.812 28.1296ZM120.883 40.1015H94.3292C94.9687 44.61 97.7398 46.9556 102.247 46.9556C105.657 46.9556 108.032 45.4629 108.885 43.1173L120.213 46.3159C117.442 53.17 110.59 57.2216 102.247 57.2216C88.3303 57.2216 81.905 46.3159 81.905 36.8724C81.905 27.6726 87.4776 16.7365 101.394 16.7365C116.163 16.7365 121.096 27.8554 121.096 36.2327C121.096 38.1823 121.096 39.2485 120.883 40.1015ZM108.702 32.6076C108.489 29.1958 105.931 26.1799 101.638 26.1799C97.5875 26.1799 95.2123 27.8859 94.3597 32.6076H108.702ZM59.6755 56.7951H70.7902L84.9197 17.6199H72.0692L65.2176 40.5279L58.366 17.4067H45.5155L59.6755 56.7951ZM7.48165 56.7951H20.119V28.1296H32.33V56.8256H44.9674V17.4067H20.1495V15.061C20.1495 12.5021 22.0679 10.7658 24.8694 10.7658H32.3605V0.0733032H22.951C13.7546 0.0733032 7.54255 5.86124 7.54255 14.2081V17.4067H0.264648V28.0991H7.54255V56.7951H7.48165Z" fill="#404145"/>
<path d="M182.73 57.8613C187.024 57.8613 190.647 54.2058 190.647 49.941C190.647 45.6457 187.024 42.0206 182.73 42.0206C178.436 42.0206 174.812 45.6762 174.812 49.941C174.812 54.2362 178.467 57.8613 182.73 57.8613Z" fill="#1DBF73"/>
</g>
<defs>
<clipPath id="clip0_101_6536">
<rect width="191" height="58" fill="white"/>
</clipPath>
</defs>
</svg>
