<svg width="100" height="100" viewBox="0 0 100 100" fill="none" xmlns="http://www.w3.org/2000/svg">
<g clip-path="url(#clip0_101_6464)">
<path d="M50.039 100.078C77.6747 100.078 100.078 77.6747 100.078 50.039C100.078 22.4032 77.6747 0 50.039 0C22.4032 0 0 22.4032 0 50.039C0 77.6747 22.4032 100.078 50.039 100.078Z" fill="url(#paint0_linear_101_6464)"/>
<path fill-rule="evenodd" clip-rule="evenodd" d="M22.6031 49.4934C37.1783 43.1021 46.9211 38.9712 51.8315 36.9447C65.7052 31.1769 68.5891 30.1637 70.4597 30.0858C70.8494 30.0858 71.7847 30.1637 72.4083 30.6314C72.8759 31.0211 73.0318 31.5667 73.1097 31.9564C73.1877 32.3461 73.2656 33.2034 73.1877 33.9049C72.4083 41.7771 69.2126 61.0289 67.4979 69.8363C66.7964 73.5776 65.3934 74.8246 64.0684 74.9805C61.1846 75.2144 58.9242 73.032 56.1183 71.2393C51.7535 68.3554 49.2594 66.5628 44.9726 63.7568C40.0622 60.4833 43.2578 58.6906 46.0637 55.8067C46.7652 55.0273 59.6257 43.4139 59.8595 42.3227C59.8595 42.1668 59.9375 41.6992 59.6257 41.4653C59.3139 41.2315 58.9242 41.3094 58.6125 41.3874C58.1448 41.4653 51.13 46.1419 37.4901 55.3391C35.4636 56.742 33.6709 57.3656 32.0341 57.3656C30.2415 57.3656 26.812 56.3523 24.2399 55.4949C21.1222 54.4817 18.6281 53.9361 18.8619 52.2214C19.0178 51.364 20.2648 50.4287 22.6031 49.4934Z" fill="white"/>
</g>
<defs>
<linearGradient id="paint0_linear_101_6464" x1="0" y1="50.0027" x2="100.006" y2="50.0027" gradientUnits="userSpaceOnUse">
<stop stop-color="#2AABEE"/>
<stop offset="1" stop-color="#229ED9"/>
</linearGradient>
<clipPath id="clip0_101_6464">
<rect width="100" height="100" fill="white"/>
</clipPath>
</defs>
</svg>
