<svg width="78" height="78" viewBox="0 0 78 78" fill="none" xmlns="http://www.w3.org/2000/svg">
<path d="M74.8962 5.21299C72.9788 3.61074 70.4958 2.94124 68.0713 3.38649L47.0795 7.20524C43.589 7.83899 40.6932 9.9645 39 12.8472C37.3068 9.96125 34.4077 7.83899 30.9205 7.20524L9.9255 3.38649C7.462 2.93474 4.9465 3.60099 3.02575 5.20974C1.10175 6.812 0 9.1715 0 11.674V67.6845L39 74.776L78 67.6845V11.8202C78 9.269 76.869 6.86399 74.8962 5.21624V5.21299ZM37.375 71.1782L3.25 64.974V11.674C3.25 10.1335 3.926 8.68724 5.109 7.70249C6.292 6.71449 7.8325 6.30824 9.347 6.58449L30.342 10.4032C34.4175 11.1442 37.3783 14.6867 37.3783 18.8337V71.1782H37.375ZM74.75 64.974L40.625 71.1782V18.8337C40.625 14.69 43.5825 11.1442 47.6613 10.4032L68.6562 6.58449C70.1123 6.31474 71.6397 6.72749 72.813 7.70899C74.0447 8.73599 74.75 10.2342 74.75 11.8202V64.974Z" fill="#F1F0F6"/>
</svg>
