<svg width="296" height="84" viewBox="0 0 296 84" fill="none" xmlns="http://www.w3.org/2000/svg">
<path d="M187.653 19.32C175.087 19.32 165.034 29.4 165.034 42C165.034 54.6 175.087 64.68 187.653 64.68C200.219 64.68 210.272 54.6 210.272 42C210.272 29.4 200.219 19.32 187.653 19.32ZM187.653 55.44C180.392 55.44 174.249 49.56 174.249 42C174.249 34.44 180.113 28.56 187.653 28.56C194.913 28.56 201.057 34.44 201.057 41.72C201.057 49.28 195.192 55.44 187.653 55.44ZM237.917 30.24C231.494 30.24 226.189 35.56 226.189 42V63.56H216.415V20.72H226.189V27.44C228.981 23.24 233.728 20.72 238.755 20.72H241.826V30.24H237.917ZM139.623 20.72L146.883 50.4L154.981 20.72H164.475L152.189 63.56H142.415L134.875 33.6L127.336 63.56H117.562L105.275 20.72H114.77L122.868 50.4L130.407 20.72H139.623ZM270.309 40.32C277.57 36.4 281.758 28.84 281.758 20.44H272.264C272.264 27.72 266.4 33.32 259.419 33.32H258.023V0H248.249V63.56H258.023V43.4H259.14C260.257 43.4 261.374 43.96 261.932 44.8L275.615 63.56H287.343L270.309 40.32Z" fill="#494949"/>
<path d="M82.0981 19.32C71.4867 19.32 63.3886 26.32 60.0377 37.52C55.0113 29.96 51.3811 21.56 48.8679 12.88H37.4188V42.56C37.4188 48.44 32.6717 53.2 26.8075 53.2C20.9434 53.2 16.1962 48.44 16.1962 42.56V13.16H5.02637V42.84C5.02637 54.88 14.8 64.96 27.0867 64.96C39.3735 64.96 49.1471 55.16 49.1471 42.84V37.8C51.3811 42.56 54.1735 47.04 57.2452 51.24L50.2641 84H61.9924L67.0188 60.2C71.4868 63.28 76.7924 64.96 82.3773 64.96C94.9434 64.96 104.996 54.88 104.996 42.28C104.717 29.68 94.6641 19.32 82.0981 19.32ZM82.0981 53.48C77.3509 53.2 72.883 51.52 69.2528 48.44L70.0905 43.96V43.68C70.9283 38.92 73.7207 30.8 81.8188 30.8C87.9622 30.52 92.9886 35.56 93.2679 41.72C93.5471 47.88 88.5207 52.92 82.3773 53.2L82.0981 53.48Z" fill="#6FDA44"/>
</svg>
