<svg width="62" height="62" viewBox="0 0 62 62" fill="none" xmlns="http://www.w3.org/2000/svg">
<path d="M3.625 23.5083C3.625 16.636 3.625 13.1999 4.96244 10.575C6.13889 8.26609 8.01609 6.38889 10.325 5.21244C12.9499 3.875 16.386 3.875 23.2583 3.875H38.2417C45.114 3.875 48.5501 3.875 51.175 5.21244C53.4838 6.38889 55.3612 8.26609 56.5376 10.575C57.875 13.1999 57.875 16.636 57.875 23.5083V38.4917C57.875 45.364 57.875 48.8001 56.5376 51.425C55.3612 53.7338 53.4838 55.6112 51.175 56.7876C48.5501 58.125 45.114 58.125 38.2417 58.125H23.2583C16.386 58.125 12.9499 58.125 10.325 56.7876C8.01609 55.6112 6.13889 53.7338 4.96244 51.425C3.625 48.8001 3.625 45.364 3.625 38.4917V23.5083Z" fill="#470137"/>
<path d="M32.0025 19.828L25.2334 31.287L32.4757 43.4553C32.6261 43.7312 32.4757 43.7922 32.2572 43.7922H27.0895C26.7256 43.7922 26.4708 43.779 26.3253 43.5299C25.8396 42.5595 25.3544 41.5953 24.8696 40.6373C24.3839 39.6795 23.8684 38.7029 23.3229 37.7071C22.7771 36.7121 22.2371 35.7044 21.7034 34.6837C21.2178 35.6792 20.678 36.6746 20.1567 37.6698C19.6347 38.6654 19.1192 39.6544 18.61 40.6373C18.1006 41.6205 17.579 42.5971 17.0452 43.5673C16.9479 43.7913 16.7779 43.8144 16.5356 43.8144H11.5499C11.354 43.8144 11.3303 43.6671 11.4407 43.4926L18.4644 31.6603L11.6226 19.7907C11.4983 19.6213 11.6053 19.4409 11.8046 19.4547H16.9359C17.158 19.4422 17.3545 19.526 17.4819 19.716C17.9186 20.7115 18.4037 21.7069 18.9374 22.7021C19.4709 23.6977 20.0108 24.6805 20.5569 25.6508C21.1029 26.6213 21.6427 27.6042 22.1037 28.5996C22.5887 27.5795 23.0801 26.5842 23.5776 25.6135C24.0747 24.6431 24.5841 23.6663 25.1061 22.6835C25.6276 21.7007 26.131 20.724 26.6164 19.7533C26.6809 19.5405 26.8351 19.4325 27.0531 19.4547H31.8205C32.0025 19.4547 32.0778 19.7032 32.0025 19.828Z" fill="#FF61F6"/>
<path d="M42.4468 44.2768C39.2373 44.3268 35.8756 43.0054 34.1857 40.0776C33.3606 38.672 32.9482 36.9115 32.9483 34.796C32.9346 33.0828 33.3615 31.3963 34.1857 29.9062C36.3125 26.1046 40.597 24.6801 44.6668 25.054V17.7008C44.6668 17.5269 44.7396 17.4395 44.8853 17.4395H49.4705C49.596 17.4211 49.7069 17.5349 49.689 17.6634V39.723C49.689 40.6331 49.7792 41.5401 49.8347 42.4478C49.8436 42.6028 49.7538 42.7561 49.6162 42.8211C47.3505 43.7902 44.8991 44.2656 42.4468 44.2768ZM44.6667 39.6484V29.4584C41.3429 28.5349 38.1156 31.0667 38.1161 34.572C38.0371 38.1961 41.1611 40.6999 44.6667 39.6484Z" fill="#FF61F6"/>
</svg>
