<svg width="114" height="114" viewBox="0 0 114 114" fill="none" xmlns="http://www.w3.org/2000/svg">
<g clip-path="url(#clip0_101_6571)">
<path d="M43.2413 7.86206H39.3103V11.7931H43.2413V7.86206Z" fill="#0A181B"/>
<path d="M51.1034 7.86206H47.1724V11.7931H51.1034V7.86206Z" fill="#0A181B"/>
<path d="M58.9655 7.86206H55.0344V11.7931H58.9655V7.86206Z" fill="#0A181B"/>
<path d="M66.8275 7.86206H62.8965V11.7931H66.8275V7.86206Z" fill="#0A181B"/>
<path d="M51.1034 11.7931H47.1724V15.7241H51.1034V11.7931Z" fill="#0A181B"/>
<path d="M58.9655 11.7931H55.0344V15.7241H58.9655V11.7931Z" fill="#0A181B"/>
<path d="M47.1725 15.7241H43.2415V19.6552H47.1725V15.7241Z" fill="#0A181B"/>
<path d="M55.0345 15.7241H51.1035V19.6552H55.0345V15.7241Z" fill="#0A181B"/>
<path d="M62.8966 15.7241H58.9656V19.6552H62.8966V15.7241Z" fill="#0A181B"/>
<path d="M74.6896 15.7241H70.7585V19.6552H74.6896V15.7241Z" fill="#0A181B"/>
<path d="M43.2413 19.6552H39.3103V23.5862H43.2413V19.6552Z" fill="#0A181B"/>
<path d="M51.1034 19.6552H47.1724V23.5862H51.1034V19.6552Z" fill="#0A181B"/>
<path d="M66.8275 19.6552H62.8965V23.5862H66.8275V19.6552Z" fill="#0A181B"/>
<path d="M43.2413 23.5862H39.3103V27.5172H43.2413V23.5862Z" fill="#0A181B"/>
<path d="M47.1725 23.5862H43.2415V27.5172H47.1725V23.5862Z" fill="#0A181B"/>
<path d="M51.1034 23.5862H47.1724V27.5172H51.1034V23.5862Z" fill="#0A181B"/>
<path d="M55.0345 23.5862H51.1035V27.5172H55.0345V23.5862Z" fill="#0A181B"/>
<path d="M62.8966 23.5862H58.9656V27.5172H62.8966V23.5862Z" fill="#0A181B"/>
<path d="M66.8275 23.5862H62.8965V27.5172H66.8275V23.5862Z" fill="#0A181B"/>
<path d="M70.7587 23.5862H66.8276V27.5172H70.7587V23.5862Z" fill="#0A181B"/>
<path d="M74.6896 23.5862H70.7585V27.5172H74.6896V23.5862Z" fill="#0A181B"/>
<path d="M43.2413 27.5172H39.3103V31.4482H43.2413V27.5172Z" fill="#0A181B"/>
<path d="M47.1725 27.5172H43.2415V31.4482H47.1725V27.5172Z" fill="#0A181B"/>
<path d="M51.1034 27.5172H47.1724V31.4482H51.1034V27.5172Z" fill="#0A181B"/>
<path d="M62.8966 27.5172H58.9656V31.4482H62.8966V27.5172Z" fill="#0A181B"/>
<path d="M66.8275 27.5172H62.8965V31.4482H66.8275V27.5172Z" fill="#0A181B"/>
<path d="M74.6896 27.5172H70.7585V31.4482H74.6896V27.5172Z" fill="#0A181B"/>
<path d="M43.2413 31.4482H39.3103V35.3793H43.2413V31.4482Z" fill="#0A181B"/>
<path d="M51.1034 31.4482H47.1724V35.3793H51.1034V31.4482Z" fill="#0A181B"/>
<path d="M58.9655 31.4482H55.0344V35.3793H58.9655V31.4482Z" fill="#0A181B"/>
<path d="M66.8275 31.4482H62.8965V35.3793H66.8275V31.4482Z" fill="#0A181B"/>
<path d="M74.6896 31.4482H70.7585V35.3793H74.6896V31.4482Z" fill="#0A181B"/>
<path d="M43.2413 35.3793H39.3103V39.3103H43.2413V35.3793Z" fill="#0A181B"/>
<path d="M51.1034 35.3793H47.1724V39.3103H51.1034V35.3793Z" fill="#0A181B"/>
<path d="M55.0345 35.3793H51.1035V39.3103H55.0345V35.3793Z" fill="#0A181B"/>
<path d="M66.8275 35.3793H62.8965V39.3103H66.8275V35.3793Z" fill="#0A181B"/>
<path d="M70.7587 35.3793H66.8276V39.3103H70.7587V35.3793Z" fill="#0A181B"/>
<path d="M11.7931 39.3104H7.86206V43.2414H11.7931V39.3104Z" fill="#0A181B"/>
<path d="M27.5172 39.3104H23.5862V43.2414H27.5172V39.3104Z" fill="#0A181B"/>
<path d="M35.3793 39.3104H31.4482V43.2414H35.3793V39.3104Z" fill="#0A181B"/>
<path d="M39.3104 39.3104H35.3794V43.2414H39.3104V39.3104Z" fill="#0A181B"/>
<path d="M43.2413 39.3104H39.3103V43.2414H43.2413V39.3104Z" fill="#0A181B"/>
<path d="M47.1725 39.3104H43.2415V43.2414H47.1725V39.3104Z" fill="#0A181B"/>
<path d="M51.1034 39.3104H47.1724V43.2414H51.1034V39.3104Z" fill="#0A181B"/>
<path d="M55.0345 39.3104H51.1035V43.2414H55.0345V39.3104Z" fill="#0A181B"/>
<path d="M62.8966 39.3104H58.9656V43.2414H62.8966V39.3104Z" fill="#0A181B"/>
<path d="M66.8275 39.3104H62.8965V43.2414H66.8275V39.3104Z" fill="#0A181B"/>
<path d="M74.6896 39.3104H70.7585V43.2414H74.6896V39.3104Z" fill="#0A181B"/>
<path d="M78.6207 39.3104H74.6897V43.2414H78.6207V39.3104Z" fill="#0A181B"/>
<path d="M82.5516 39.3104H78.6206V43.2414H82.5516V39.3104Z" fill="#0A181B"/>
<path d="M86.4828 39.3104H82.5518V43.2414H86.4828V39.3104Z" fill="#0A181B"/>
<path d="M90.4137 39.3104H86.4827V43.2414H90.4137V39.3104Z" fill="#0A181B"/>
<path d="M94.3449 39.3104H90.4138V43.2414H94.3449V39.3104Z" fill="#0A181B"/>
<path d="M106.138 39.3104H102.207V43.2414H106.138V39.3104Z" fill="#0A181B"/>
<path d="M15.7242 43.2414H11.7932V47.1724H15.7242V43.2414Z" fill="#0A181B"/>
<path d="M39.3104 43.2414H35.3794V47.1724H39.3104V43.2414Z" fill="#0A181B"/>
<path d="M51.1034 43.2414H47.1724V47.1724H51.1034V43.2414Z" fill="#0A181B"/>
<path d="M58.9655 43.2414H55.0344V47.1724H58.9655V43.2414Z" fill="#0A181B"/>
<path d="M70.7587 43.2414H66.8276V47.1724H70.7587V43.2414Z" fill="#0A181B"/>
<path d="M74.6896 43.2414H70.7585V47.1724H74.6896V43.2414Z" fill="#0A181B"/>
<path d="M78.6207 43.2414H74.6897V47.1724H78.6207V43.2414Z" fill="#0A181B"/>
<path d="M90.4137 43.2414H86.4827V47.1724H90.4137V43.2414Z" fill="#0A181B"/>
<path d="M94.3449 43.2414H90.4138V47.1724H94.3449V43.2414Z" fill="#0A181B"/>
<path d="M102.207 43.2414H98.2759V47.1724H102.207V43.2414Z" fill="#0A181B"/>
<path d="M11.7931 47.1724H7.86206V51.1035H11.7931V47.1724Z" fill="#0A181B"/>
<path d="M15.7242 47.1724H11.7932V51.1035H15.7242V47.1724Z" fill="#0A181B"/>
<path d="M19.6552 47.1724H15.7241V51.1035H19.6552V47.1724Z" fill="#0A181B"/>
<path d="M23.5863 47.1724H19.6553V51.1035H23.5863V47.1724Z" fill="#0A181B"/>
<path d="M27.5172 47.1724H23.5862V51.1035H27.5172V47.1724Z" fill="#0A181B"/>
<path d="M31.4484 47.1724H27.5173V51.1035H31.4484V47.1724Z" fill="#0A181B"/>
<path d="M35.3793 47.1724H31.4482V51.1035H35.3793V47.1724Z" fill="#0A181B"/>
<path d="M39.3104 47.1724H35.3794V51.1035H39.3104V47.1724Z" fill="#0A181B"/>
<path d="M51.1034 47.1724H47.1724V51.1035H51.1034V47.1724Z" fill="#0A181B"/>
<path d="M58.9655 47.1724H55.0344V51.1035H58.9655V47.1724Z" fill="#0A181B"/>
<path d="M62.8966 47.1724H58.9656V51.1035H62.8966V47.1724Z" fill="#0A181B"/>
<path d="M66.8275 47.1724H62.8965V51.1035H66.8275V47.1724Z" fill="#0A181B"/>
<path d="M70.7587 47.1724H66.8276V51.1035H70.7587V47.1724Z" fill="#0A181B"/>
<path d="M74.6896 47.1724H70.7585V51.1035H74.6896V47.1724Z" fill="#0A181B"/>
<path d="M86.4828 47.1724H82.5518V51.1035H86.4828V47.1724Z" fill="#0A181B"/>
<path d="M90.4137 47.1724H86.4827V51.1035H90.4137V47.1724Z" fill="#0A181B"/>
<path d="M94.3449 47.1724H90.4138V51.1035H94.3449V47.1724Z" fill="#0A181B"/>
<path d="M98.2758 47.1724H94.3447V51.1035H98.2758V47.1724Z" fill="#0A181B"/>
<path d="M11.7931 51.1035H7.86206V55.0345H11.7931V51.1035Z" fill="#0A181B"/>
<path d="M15.7242 51.1035H11.7932V55.0345H15.7242V51.1035Z" fill="#0A181B"/>
<path d="M23.5863 51.1035H19.6553V55.0345H23.5863V51.1035Z" fill="#0A181B"/>
<path d="M39.3104 51.1035H35.3794V55.0345H39.3104V51.1035Z" fill="#0A181B"/>
<path d="M43.2413 51.1035H39.3103V55.0345H43.2413V51.1035Z" fill="#0A181B"/>
<path d="M55.0345 51.1035H51.1035V55.0345H55.0345V51.1035Z" fill="#0A181B"/>
<path d="M62.8966 51.1035H58.9656V55.0345H62.8966V51.1035Z" fill="#0A181B"/>
<path d="M82.5516 51.1035H78.6206V55.0345H82.5516V51.1035Z" fill="#0A181B"/>
<path d="M86.4828 51.1035H82.5518V55.0345H86.4828V51.1035Z" fill="#0A181B"/>
<path d="M98.2758 51.1035H94.3447V55.0345H98.2758V51.1035Z" fill="#0A181B"/>
<path d="M102.207 51.1035H98.2759V55.0345H102.207V51.1035Z" fill="#0A181B"/>
<path d="M15.7242 55.0345H11.7932V58.9655H15.7242V55.0345Z" fill="#0A181B"/>
<path d="M19.6552 55.0345H15.7241V58.9655H19.6552V55.0345Z" fill="#0A181B"/>
<path d="M31.4484 55.0345H27.5173V58.9655H31.4484V55.0345Z" fill="#0A181B"/>
<path d="M35.3793 55.0345H31.4482V58.9655H35.3793V55.0345Z" fill="#0A181B"/>
<path d="M39.3104 55.0345H35.3794V58.9655H39.3104V55.0345Z" fill="#0A181B"/>
<path d="M43.2413 55.0345H39.3103V58.9655H43.2413V55.0345Z" fill="#0A181B"/>
<path d="M47.1725 55.0345H43.2415V58.9655H47.1725V55.0345Z" fill="#0A181B"/>
<path d="M58.9655 55.0345H55.0344V58.9655H58.9655V55.0345Z" fill="#0A181B"/>
<path d="M62.8966 55.0345H58.9656V58.9655H62.8966V55.0345Z" fill="#0A181B"/>
<path d="M70.7587 55.0345H66.8276V58.9655H70.7587V55.0345Z" fill="#0A181B"/>
<path d="M78.6207 55.0345H74.6897V58.9655H78.6207V55.0345Z" fill="#0A181B"/>
<path d="M82.5516 55.0345H78.6206V58.9655H82.5516V55.0345Z" fill="#0A181B"/>
<path d="M94.3449 55.0345H90.4138V58.9655H94.3449V55.0345Z" fill="#0A181B"/>
<path d="M98.2758 55.0345H94.3447V58.9655H98.2758V55.0345Z" fill="#0A181B"/>
<path d="M102.207 55.0345H98.2759V58.9655H102.207V55.0345Z" fill="#0A181B"/>
<path d="M106.138 55.0345H102.207V58.9655H106.138V55.0345Z" fill="#0A181B"/>
<path d="M11.7931 58.9655H7.86206V62.8965H11.7931V58.9655Z" fill="#0A181B"/>
<path d="M15.7242 58.9655H11.7932V62.8965H15.7242V58.9655Z" fill="#0A181B"/>
<path d="M31.4484 58.9655H27.5173V62.8965H31.4484V58.9655Z" fill="#0A181B"/>
<path d="M39.3104 58.9655H35.3794V62.8965H39.3104V58.9655Z" fill="#0A181B"/>
<path d="M43.2413 58.9655H39.3103V62.8965H43.2413V58.9655Z" fill="#0A181B"/>
<path d="M47.1725 58.9655H43.2415V62.8965H47.1725V58.9655Z" fill="#0A181B"/>
<path d="M62.8966 58.9655H58.9656V62.8965H62.8966V58.9655Z" fill="#0A181B"/>
<path d="M66.8275 58.9655H62.8965V62.8965H66.8275V58.9655Z" fill="#0A181B"/>
<path d="M70.7587 58.9655H66.8276V62.8965H70.7587V58.9655Z" fill="#0A181B"/>
<path d="M78.6207 58.9655H74.6897V62.8965H78.6207V58.9655Z" fill="#0A181B"/>
<path d="M90.4137 58.9655H86.4827V62.8965H90.4137V58.9655Z" fill="#0A181B"/>
<path d="M102.207 58.9655H98.2759V62.8965H102.207V58.9655Z" fill="#0A181B"/>
<path d="M19.6552 62.8965H15.7241V66.8276H19.6552V62.8965Z" fill="#0A181B"/>
<path d="M23.5863 62.8965H19.6553V66.8276H23.5863V62.8965Z" fill="#0A181B"/>
<path d="M27.5172 62.8965H23.5862V66.8276H27.5172V62.8965Z" fill="#0A181B"/>
<path d="M35.3793 62.8965H31.4482V66.8276H35.3793V62.8965Z" fill="#0A181B"/>
<path d="M47.1725 62.8965H43.2415V66.8276H47.1725V62.8965Z" fill="#0A181B"/>
<path d="M51.1034 62.8965H47.1724V66.8276H51.1034V62.8965Z" fill="#0A181B"/>
<path d="M70.7587 62.8965H66.8276V66.8276H70.7587V62.8965Z" fill="#0A181B"/>
<path d="M74.6896 62.8965H70.7585V66.8276H74.6896V62.8965Z" fill="#0A181B"/>
<path d="M86.4828 62.8965H82.5518V66.8276H86.4828V62.8965Z" fill="#0A181B"/>
<path d="M90.4137 62.8965H86.4827V66.8276H90.4137V62.8965Z" fill="#0A181B"/>
<path d="M94.3449 62.8965H90.4138V66.8276H94.3449V62.8965Z" fill="#0A181B"/>
<path d="M98.2758 62.8965H94.3447V66.8276H98.2758V62.8965Z" fill="#0A181B"/>
<path d="M27.5172 66.8276H23.5862V70.7586H27.5172V66.8276Z" fill="#0A181B"/>
<path d="M31.4484 66.8276H27.5173V70.7586H31.4484V66.8276Z" fill="#0A181B"/>
<path d="M39.3104 66.8276H35.3794V70.7586H39.3104V66.8276Z" fill="#0A181B"/>
<path d="M43.2413 66.8276H39.3103V70.7586H43.2413V66.8276Z" fill="#0A181B"/>
<path d="M47.1725 66.8276H43.2415V70.7586H47.1725V66.8276Z" fill="#0A181B"/>
<path d="M58.9655 66.8276H55.0344V70.7586H58.9655V66.8276Z" fill="#0A181B"/>
<path d="M66.8275 66.8276H62.8965V70.7586H66.8275V66.8276Z" fill="#0A181B"/>
<path d="M74.6896 66.8276H70.7585V70.7586H74.6896V66.8276Z" fill="#0A181B"/>
<path d="M82.5516 66.8276H78.6206V70.7586H82.5516V66.8276Z" fill="#0A181B"/>
<path d="M86.4828 66.8276H82.5518V70.7586H86.4828V66.8276Z" fill="#0A181B"/>
<path d="M90.4137 66.8276H86.4827V70.7586H90.4137V66.8276Z" fill="#0A181B"/>
<path d="M98.2758 66.8276H94.3447V70.7586H98.2758V66.8276Z" fill="#0A181B"/>
<path d="M102.207 66.8276H98.2759V70.7586H102.207V66.8276Z" fill="#0A181B"/>
<path d="M11.7931 70.7586H7.86206V74.6896H11.7931V70.7586Z" fill="#0A181B"/>
<path d="M15.7242 70.7586H11.7932V74.6896H15.7242V70.7586Z" fill="#0A181B"/>
<path d="M31.4484 70.7586H27.5173V74.6896H31.4484V70.7586Z" fill="#0A181B"/>
<path d="M35.3793 70.7586H31.4482V74.6896H35.3793V70.7586Z" fill="#0A181B"/>
<path d="M43.2413 70.7586H39.3103V74.6896H43.2413V70.7586Z" fill="#0A181B"/>
<path d="M51.1034 70.7586H47.1724V74.6896H51.1034V70.7586Z" fill="#0A181B"/>
<path d="M55.0345 70.7586H51.1035V74.6896H55.0345V70.7586Z" fill="#0A181B"/>
<path d="M62.8966 70.7586H58.9656V74.6896H62.8966V70.7586Z" fill="#0A181B"/>
<path d="M66.8275 70.7586H62.8965V74.6896H66.8275V70.7586Z" fill="#0A181B"/>
<path d="M70.7587 70.7586H66.8276V74.6896H70.7587V70.7586Z" fill="#0A181B"/>
<path d="M74.6896 70.7586H70.7585V74.6896H74.6896V70.7586Z" fill="#0A181B"/>
<path d="M78.6207 70.7586H74.6897V74.6896H78.6207V70.7586Z" fill="#0A181B"/>
<path d="M82.5516 70.7586H78.6206V74.6896H82.5516V70.7586Z" fill="#0A181B"/>
<path d="M86.4828 70.7586H82.5518V74.6896H86.4828V70.7586Z" fill="#0A181B"/>
<path d="M90.4137 70.7586H86.4827V74.6896H90.4137V70.7586Z" fill="#0A181B"/>
<path d="M94.3449 70.7586H90.4138V74.6896H94.3449V70.7586Z" fill="#0A181B"/>
<path d="M98.2758 70.7586H94.3447V74.6896H98.2758V70.7586Z" fill="#0A181B"/>
<path d="M43.2413 74.6896H39.3103V78.6207H43.2413V74.6896Z" fill="#0A181B"/>
<path d="M47.1725 74.6896H43.2415V78.6207H47.1725V74.6896Z" fill="#0A181B"/>
<path d="M51.1034 74.6896H47.1724V78.6207H51.1034V74.6896Z" fill="#0A181B"/>
<path d="M58.9655 74.6896H55.0344V78.6207H58.9655V74.6896Z" fill="#0A181B"/>
<path d="M74.6896 74.6896H70.7585V78.6207H74.6896V74.6896Z" fill="#0A181B"/>
<path d="M90.4137 74.6896H86.4827V78.6207H90.4137V74.6896Z" fill="#0A181B"/>
<path d="M43.2413 78.6207H39.3103V82.5517H43.2413V78.6207Z" fill="#0A181B"/>
<path d="M47.1725 78.6207H43.2415V82.5517H47.1725V78.6207Z" fill="#0A181B"/>
<path d="M55.0345 78.6207H51.1035V82.5517H55.0345V78.6207Z" fill="#0A181B"/>
<path d="M58.9655 78.6207H55.0344V82.5517H58.9655V78.6207Z" fill="#0A181B"/>
<path d="M62.8966 78.6207H58.9656V82.5517H62.8966V78.6207Z" fill="#0A181B"/>
<path d="M66.8275 78.6207H62.8965V82.5517H66.8275V78.6207Z" fill="#0A181B"/>
<path d="M74.6896 78.6207H70.7585V82.5517H74.6896V78.6207Z" fill="#0A181B"/>
<path d="M82.5516 78.6207H78.6206V82.5517H82.5516V78.6207Z" fill="#0A181B"/>
<path d="M90.4137 78.6207H86.4827V82.5517H90.4137V78.6207Z" fill="#0A181B"/>
<path d="M47.1725 82.5517H43.2415V86.4827H47.1725V82.5517Z" fill="#0A181B"/>
<path d="M51.1034 82.5517H47.1724V86.4827H51.1034V82.5517Z" fill="#0A181B"/>
<path d="M55.0345 82.5517H51.1035V86.4827H55.0345V82.5517Z" fill="#0A181B"/>
<path d="M62.8966 82.5517H58.9656V86.4827H62.8966V82.5517Z" fill="#0A181B"/>
<path d="M74.6896 82.5517H70.7585V86.4827H74.6896V82.5517Z" fill="#0A181B"/>
<path d="M90.4137 82.5517H86.4827V86.4827H90.4137V82.5517Z" fill="#0A181B"/>
<path d="M94.3449 82.5517H90.4138V86.4827H94.3449V82.5517Z" fill="#0A181B"/>
<path d="M98.2758 82.5517H94.3447V86.4827H98.2758V82.5517Z" fill="#0A181B"/>
<path d="M43.2413 86.4827H39.3103V90.4138H43.2413V86.4827Z" fill="#0A181B"/>
<path d="M51.1034 86.4827H47.1724V90.4138H51.1034V86.4827Z" fill="#0A181B"/>
<path d="M58.9655 86.4827H55.0344V90.4138H58.9655V86.4827Z" fill="#0A181B"/>
<path d="M62.8966 86.4827H58.9656V90.4138H62.8966V86.4827Z" fill="#0A181B"/>
<path d="M74.6896 86.4827H70.7585V90.4138H74.6896V86.4827Z" fill="#0A181B"/>
<path d="M78.6207 86.4827H74.6897V90.4138H78.6207V86.4827Z" fill="#0A181B"/>
<path d="M82.5516 86.4827H78.6206V90.4138H82.5516V86.4827Z" fill="#0A181B"/>
<path d="M86.4828 86.4827H82.5518V90.4138H86.4828V86.4827Z" fill="#0A181B"/>
<path d="M90.4137 86.4827H86.4827V90.4138H90.4137V86.4827Z" fill="#0A181B"/>
<path d="M94.3449 86.4827H90.4138V90.4138H94.3449V86.4827Z" fill="#0A181B"/>
<path d="M98.2758 86.4827H94.3447V90.4138H98.2758V86.4827Z" fill="#0A181B"/>
<path d="M106.138 86.4827H102.207V90.4138H106.138V86.4827Z" fill="#0A181B"/>
<path d="M51.1034 90.4138H47.1724V94.3449H51.1034V90.4138Z" fill="#0A181B"/>
<path d="M62.8966 90.4138H58.9656V94.3449H62.8966V90.4138Z" fill="#0A181B"/>
<path d="M66.8275 90.4138H62.8965V94.3449H66.8275V90.4138Z" fill="#0A181B"/>
<path d="M74.6896 90.4138H70.7585V94.3449H74.6896V90.4138Z" fill="#0A181B"/>
<path d="M82.5516 90.4138H78.6206V94.3449H82.5516V90.4138Z" fill="#0A181B"/>
<path d="M86.4828 90.4138H82.5518V94.3449H86.4828V90.4138Z" fill="#0A181B"/>
<path d="M98.2758 90.4138H94.3447V94.3449H98.2758V90.4138Z" fill="#0A181B"/>
<path d="M102.207 90.4138H98.2759V94.3449H102.207V90.4138Z" fill="#0A181B"/>
<path d="M106.138 90.4138H102.207V94.3449H106.138V90.4138Z" fill="#0A181B"/>
<path d="M47.1725 94.3448H43.2415V98.2759H47.1725V94.3448Z" fill="#0A181B"/>
<path d="M78.6207 94.3448H74.6897V98.2759H78.6207V94.3448Z" fill="#0A181B"/>
<path d="M82.5516 94.3448H78.6206V98.2759H82.5516V94.3448Z" fill="#0A181B"/>
<path d="M94.3449 94.3448H90.4138V98.2759H94.3449V94.3448Z" fill="#0A181B"/>
<path d="M102.207 94.3448H98.2759V98.2759H102.207V94.3448Z" fill="#0A181B"/>
<path d="M58.9655 98.2759H55.0344V102.207H58.9655V98.2759Z" fill="#0A181B"/>
<path d="M66.8275 98.2759H62.8965V102.207H66.8275V98.2759Z" fill="#0A181B"/>
<path d="M70.7587 98.2759H66.8276V102.207H70.7587V98.2759Z" fill="#0A181B"/>
<path d="M82.5516 98.2759H78.6206V102.207H82.5516V98.2759Z" fill="#0A181B"/>
<path d="M86.4828 98.2759H82.5518V102.207H86.4828V98.2759Z" fill="#0A181B"/>
<path d="M90.4137 98.2759H86.4827V102.207H90.4137V98.2759Z" fill="#0A181B"/>
<path d="M94.3449 98.2759H90.4138V102.207H94.3449V98.2759Z" fill="#0A181B"/>
<path d="M98.2758 98.2759H94.3447V102.207H98.2758V98.2759Z" fill="#0A181B"/>
<path d="M102.207 98.2759H98.2759V102.207H102.207V98.2759Z" fill="#0A181B"/>
<path d="M43.2413 102.207H39.3103V106.138H43.2413V102.207Z" fill="#0A181B"/>
<path d="M55.0345 102.207H51.1035V106.138H55.0345V102.207Z" fill="#0A181B"/>
<path d="M62.8966 102.207H58.9656V106.138H62.8966V102.207Z" fill="#0A181B"/>
<path d="M66.8275 102.207H62.8965V106.138H66.8275V102.207Z" fill="#0A181B"/>
<path d="M70.7587 102.207H66.8276V106.138H70.7587V102.207Z" fill="#0A181B"/>
<path d="M98.2758 102.207H94.3447V106.138H98.2758V102.207Z" fill="#0A181B"/>
<path d="M102.207 102.207H98.2759V106.138H102.207V102.207Z" fill="#0A181B"/>
<path d="M106.138 102.207H102.207V106.138H106.138V102.207Z" fill="#0A181B"/>
<path d="M31.2517 7.86206H11.9896H7.86206V11.9896V31.2517V35.3793H11.9896H31.2517H35.3793V31.2517V11.9896V7.86206H31.2517ZM31.2517 31.2517H11.9896V11.9896H31.2517V31.2517Z" fill="#0A181B"/>
<path d="M102.01 7.86206H82.7482H78.6206V11.9896V31.2517V35.3793H82.7482H102.01H106.138V31.2517V11.9896V7.86206H102.01ZM102.01 31.2517H82.7482V11.9896H102.01V31.2517Z" fill="#0A181B"/>
<path d="M31.2517 78.6207H11.9896H7.86206V82.7483V102.01V106.138H11.9896H31.2517H35.3793V102.01V82.7483V78.6207H31.2517ZM31.2517 102.01H11.9896V82.7483H31.2517V102.01Z" fill="#0A181B"/>
<path d="M27.5172 15.7241H15.7241V27.5172H27.5172V15.7241Z" fill="#0A181B"/>
<path d="M98.2758 15.7241H86.4827V27.5172H98.2758V15.7241Z" fill="#0A181B"/>
<path d="M27.5172 86.4827H15.7241V98.2758H27.5172V86.4827Z" fill="#0A181B"/>
</g>
<rect x="0.5" y="0.5" width="113" height="113" stroke="#D0D5DB"/>
<defs>
<clipPath id="clip0_101_6571">
<rect width="114" height="114" fill="white"/>
</clipPath>
</defs>
</svg>
