<svg width="20" height="21" viewBox="0 0 20 21" fill="none" xmlns="http://www.w3.org/2000/svg">
<path d="M10.0009 0C7.34959 0.00286757 4.80771 1.05736 2.93297 2.9321C1.05823 4.80684 0.00373923 7.34872 0.000871665 10C-0.104128 17.9775 9.30004 22.8575 15.7509 18.1808C15.8436 18.1192 15.923 18.0396 15.9844 17.9467C16.0458 17.8538 16.088 17.7496 16.1085 17.6402C16.1289 17.5307 16.1273 17.4183 16.1036 17.3095C16.0798 17.2007 16.0346 17.0978 15.9704 17.0068C15.9063 16.9158 15.8245 16.8386 15.73 16.7797C15.6355 16.7208 15.5302 16.6815 15.4203 16.664C15.3103 16.6465 15.198 16.6512 15.0899 16.6779C14.9818 16.7045 14.8801 16.7526 14.7909 16.8192C9.41754 20.7133 1.58421 16.6483 1.66754 10C2.12504 -1.055 17.8784 -1.0525 18.3342 10V11.6667C18.3342 12.1087 18.1586 12.5326 17.8461 12.8452C17.5335 13.1577 17.1096 13.3333 16.6675 13.3333C16.2255 13.3333 15.8016 13.1577 15.489 12.8452C15.1765 12.5326 15.0009 12.1087 15.0009 11.6667V10C14.7909 3.3925 5.21004 3.39333 5.00087 10C5.01057 11.0133 5.32708 11.9999 5.90869 12.8298C6.4903 13.6597 7.30971 14.2938 8.25892 14.6487C9.20813 15.0036 10.2426 15.0625 11.226 14.8177C12.2093 14.5729 13.0954 14.0359 13.7675 13.2775C14.129 13.9155 14.6909 14.4165 15.3659 14.7029C16.041 14.9893 16.7917 15.0451 17.5017 14.8616C18.2117 14.6781 18.8414 14.2656 19.2932 13.688C19.745 13.1104 19.9937 12.4 20.0009 11.6667V10C19.998 7.34872 18.9435 4.80684 17.0688 2.9321C15.194 1.05736 12.6522 0.00286757 10.0009 0ZM10.0009 13.3333C9.11682 13.3333 8.26897 12.9821 7.64385 12.357C7.01873 11.7319 6.66754 10.8841 6.66754 10C6.66754 9.11595 7.01873 8.2681 7.64385 7.64298C8.26897 7.01786 9.11682 6.66667 10.0009 6.66667C10.8849 6.66667 11.7328 7.01786 12.3579 7.64298C12.983 8.2681 13.3342 9.11595 13.3342 10C13.3342 10.8841 12.983 11.7319 12.3579 12.357C11.7328 12.9821 10.8849 13.3333 10.0009 13.3333Z" fill="#788089"/>
</svg>
