<svg width="20" height="20" viewBox="0 0 20 20" fill="none" xmlns="http://www.w3.org/2000/svg">
<path fill-rule="evenodd" clip-rule="evenodd" d="M1.69852 8.717C6.90395 6.43441 10.3835 4.95907 12.1372 4.23532C17.0921 2.17542 18.1221 1.81354 18.7902 1.78571C18.9293 1.78571 19.2634 1.81354 19.4861 1.98056C19.6531 2.11974 19.7088 2.3146 19.7366 2.45378C19.7644 2.59297 19.7923 2.89917 19.7644 3.1497C19.4861 5.96119 18.3448 12.8368 17.7324 15.9823C17.4818 17.3185 16.9808 17.7639 16.5076 17.8196C15.4776 17.9031 14.6703 17.1236 13.6682 16.4834C12.1094 15.4534 11.2186 14.8132 9.6876 13.8111C7.9339 12.642 9.0752 12.0017 10.0773 10.9718C10.3278 10.6934 14.9209 6.54575 15.0044 6.15604C15.0044 6.10037 15.0322 5.93335 14.9209 5.84984C14.8095 5.76633 14.6703 5.79417 14.559 5.822C14.392 5.84984 11.8867 7.52003 7.0153 10.8047C6.29155 11.3058 5.65131 11.5285 5.06674 11.5285C4.4265 11.5285 3.20169 11.1666 2.28308 10.8604C1.16962 10.4985 0.278853 10.3037 0.362363 9.69128C0.418036 9.38508 0.86342 9.05104 1.69852 8.717Z" fill="#788089"/>
</svg>
