<svg width="62" height="62" viewBox="0 0 62 62" fill="none" xmlns="http://www.w3.org/2000/svg">
<path d="M3.625 23.5083C3.625 16.636 3.625 13.1999 4.96244 10.575C6.13889 8.26609 8.01609 6.38889 10.325 5.21244C12.9499 3.875 16.386 3.875 23.2583 3.875H38.2417C45.114 3.875 48.5501 3.875 51.175 5.21244C53.4838 6.38889 55.3612 8.26609 56.5376 10.575C57.875 13.1999 57.875 16.636 57.875 23.5083V38.4917C57.875 45.364 57.875 48.8001 56.5376 51.425C55.3612 53.7338 53.4838 55.6112 51.175 56.7876C48.5501 58.125 45.114 58.125 38.2417 58.125H23.2583C16.386 58.125 12.9499 58.125 10.325 56.7876C8.01609 55.6112 6.13889 53.7338 4.96244 51.425C3.625 48.8001 3.625 45.364 3.625 38.4917V23.5083Z" fill="#00005B"/>
<path d="M26.4668 37.905H18.0602L16.3497 43.365C16.3022 43.5674 16.1158 43.7107 15.913 43.7008H11.655C11.4122 43.7008 11.3273 43.564 11.4003 43.2903L18.6787 21.8794C18.7516 21.6555 18.8243 21.4366 18.8972 21.1502C18.9923 20.6522 19.0412 20.1461 19.0427 19.6386C19.0219 19.4886 19.1514 19.3558 19.2976 19.3773H25.0838C25.2534 19.3773 25.3504 19.4394 25.375 19.5639L33.6362 43.3276C33.709 43.5767 33.6362 43.701 33.4178 43.7008H28.6867C28.5208 43.7196 28.3624 43.606 28.3228 43.4396L26.4668 37.905ZM19.3703 33.3012H25.1203C24.1755 30.0729 23.1094 26.8872 22.2453 23.6337C21.2661 27.0086 20.3619 30.1384 19.3703 33.3012Z" fill="#9999FF"/>
<path d="M39.7803 35.7966C40.1149 38.569 42.443 39.8908 45.0209 39.8345C46.4745 39.8059 48.0281 39.5803 49.3863 39.0305C49.5075 38.9315 49.5683 38.9932 49.5683 39.2172V42.7632C49.5798 42.9476 49.5027 43.1125 49.3499 43.211C47.6618 43.978 45.7237 44.2092 43.8927 44.1799C38.4332 44.1799 34.6838 40.3332 34.6853 34.7364C34.6711 29.4327 38.1119 24.9582 43.456 24.9582C47.986 24.8408 51.1222 28.4678 51.1349 32.9822C51.1349 33.8045 51.089 34.6294 50.9893 35.4456C50.97 35.6138 50.8268 35.7443 50.6617 35.7443C47.0438 35.7443 43.4082 35.7966 39.7803 35.7966ZM39.7803 32.3964C41.7966 32.3964 43.8247 32.4676 45.8397 32.3777C46.1426 32.3467 46.3674 32.2893 46.3674 31.9743C46.3255 30.3007 44.913 28.9243 43.2742 28.9882C41.2938 28.8655 40.0265 30.5371 39.7803 32.3964Z" fill="#9999FF"/>
</svg>
