<svg width="405" height="140" viewBox="0 0 405 140" fill="none" xmlns="http://www.w3.org/2000/svg">
<rect width="405" height="140" rx="20" fill="white" fill-opacity="0.2"/>
<g clip-path="url(#clip0_101_6535)">
<path d="M281.812 69.1296H275.174C270.88 69.1296 268.536 72.3282 268.536 77.9029V97.8256H255.716V69.1296H250.356C246.062 69.1296 243.718 72.3282 243.718 77.9029V97.8256H230.867V58.4067H243.718V64.4078C245.849 59.6861 248.651 58.4067 252.914 58.4067H268.536V64.4078C270.667 59.6861 273.469 58.4067 277.732 58.4067H282.026L281.812 69.1296ZM227.883 81.1015H201.329C201.969 85.61 204.74 87.9556 209.247 87.9556C212.657 87.9556 215.032 86.4629 215.885 84.1173L227.213 87.3159C224.442 94.17 217.59 98.2216 209.247 98.2216C195.33 98.2216 188.905 87.3159 188.905 77.8724C188.905 68.6726 194.478 57.7365 208.394 57.7365C223.163 57.7365 228.096 68.8554 228.096 77.2327C228.096 79.1823 228.096 80.2485 227.883 81.1015ZM215.702 73.6076C215.489 70.1958 212.931 67.1799 208.638 67.1799C204.588 67.1799 202.212 68.8859 201.36 73.6076H215.702ZM166.675 97.7951H177.79L191.92 58.6199H179.069L172.218 81.5279L165.366 58.4067H152.516L166.675 97.7951ZM114.482 97.7951H127.119V69.1296H139.33V97.8256H151.967V58.4067H127.149V56.061C127.149 53.5021 129.068 51.7658 131.869 51.7658H139.361V41.0733H129.951C120.755 41.0733 114.543 46.8612 114.543 55.2081V58.4067H107.265V69.0991H114.543V97.7951H114.482Z" fill="#404145"/>
<path d="M289.73 98.8613C294.024 98.8613 297.647 95.2058 297.647 90.941C297.647 86.6457 294.024 83.0206 289.73 83.0206C285.436 83.0206 281.812 86.6762 281.812 90.941C281.812 95.2362 285.467 98.8613 289.73 98.8613Z" fill="#1DBF73"/>
</g>
<defs>
<clipPath id="clip0_101_6535">
<rect width="191" height="58" fill="white" transform="translate(107 41)"/>
</clipPath>
</defs>
</svg>
