<svg width="1280" height="621" viewBox="0 0 1280 621" fill="none" xmlns="http://www.w3.org/2000/svg">
<g opacity="0.6">
<path d="M-92.1381 57.3142C-37.9158 87.903 10.1236 130.73 48.9848 183.126C106.259 261.31 103.144 309.208 158.155 353.871C211.622 397.246 285.006 409.199 344.544 392.813C425.783 370.437 429.457 309.537 533.595 213.082C594.837 156.406 709.679 50.0051 845.131 60.3097C913.562 65.5219 981.594 100.09 1044.83 132.202C1122.34 171.564 1133.47 191.783 1175.3 201.099C1224.99 212.183 1301.81 204.305 1412.28 105.243" stroke="#FFB400" stroke-width="0.8" stroke-miterlimit="10" stroke-linecap="round"/>
<path d="M-93.6554 68.5188C-44.796 95.3914 -0.749359 132.149 36.2842 176.957C39.8256 181.3 43.3669 185.764 46.935 190.347C104.795 266.074 102.505 311.815 156.824 355.37C180.502 374.429 207.311 388.002 235.693 395.301C256.023 400.507 276.873 402.683 297.708 401.771C313.288 401.08 328.749 398.417 343.799 393.833C360.57 388.983 376.512 381.048 390.982 370.348C417.609 350.577 436.248 323.887 464.925 290.397C486.527 265.193 510.028 242.141 535.167 221.5C548.48 210.417 564.03 197.057 582.004 183.367C630.092 146.642 691.627 106.742 765.463 92.9623C790.518 88.1528 815.975 86.545 841.35 88.1694C845.238 88.4091 849.099 88.7685 852.906 89.1879C890.61 93.2918 926.53 104.166 963.222 118.604C990.674 129.268 1016.64 142.568 1042.38 155.06C1053.17 160.392 1062.81 165.244 1071.51 169.797C1124.1 197.386 1137.76 212.184 1173.68 218.655C1200.97 223.567 1236.28 222.698 1281.09 205.205C1317.84 190.886 1361.35 165.095 1412.29 122.438" stroke="#FFB400" stroke-width="0.8" stroke-miterlimit="10" stroke-linecap="round"/>
<path d="M-95.0663 79.7812C-46.713 105.638 -2.93756 141.163 34.1276 184.625C37.6779 188.818 41.2282 193.112 44.7784 197.505C103.358 270.806 101.947 314.331 155.52 356.867C179.254 376.175 206.149 390.011 234.655 397.577C255.105 402.817 276.092 404.913 297.042 403.807C312.646 402.912 328.095 399.895 343.054 394.821C359.741 389.395 375.597 381.142 390.077 370.347C417.769 349.978 437.42 324.156 465.777 292.883C487.48 269.147 511.254 247.931 536.738 229.558C550.052 219.732 565.256 207.69 583.042 195.768C630.438 163.985 688.219 130.645 761.31 119.772C786.562 115.857 812.081 114.574 837.543 115.937C841.484 116.177 845.371 116.476 849.205 116.866C887.548 120.64 922.563 129.956 960 142.807C988.198 152.513 1013.92 165.573 1039.88 177.885C1050.66 182.977 1060.41 187.62 1069.33 191.964C1122.08 217.755 1136.22 231.355 1172 236.148C1199.27 239.802 1234.31 237.795 1279.36 220.092C1316.16 205.593 1360.23 180.281 1412.29 139.692" stroke="#FFB400" stroke-width="0.8" stroke-miterlimit="10" stroke-linecap="round"/>
<path d="M-96.7441 90.865C-48.7861 115.743 -5.18925 150.108 31.9706 192.323C35.512 196.397 39.08 200.531 42.6214 204.755C101.973 275.599 101.307 316.967 154.162 358.365C179.191 377.956 203.848 392.065 233.537 399.883C254.123 405.167 275.266 407.184 296.35 405.874C311.983 404.769 327.422 401.385 342.281 395.809C358.894 389.811 374.684 381.242 389.198 370.347C417.902 349.379 438.538 324.486 466.602 295.459C488.426 273.179 512.492 253.846 538.309 237.855C551.755 229.288 566.507 218.564 584.081 208.409C631.024 181.27 684.81 154.7 757.156 146.672C782.607 143.665 808.216 142.714 833.788 143.826C837.756 144.036 841.776 144.305 845.504 144.665C883.125 148.131 920.361 155.665 956.698 167.161C985.642 175.878 1011.15 188.819 1037.43 200.801C1048.22 205.713 1058.04 210.117 1067.2 214.251C1120.08 238.215 1134.73 250.556 1170.35 253.762C1197.62 256.218 1232.47 252.983 1277.69 235.07C1314.56 220.571 1359.11 195.439 1412.29 156.767" stroke="#FFB400" stroke-width="0.8" stroke-miterlimit="10" stroke-linecap="round"/>
<path d="M-98.2888 102.037C-50.7943 125.948 -7.42735 159.109 29.8135 199.991C33.3549 203.945 36.9495 207.899 40.4643 211.973C100.455 280.481 100.721 319.422 152.83 359.892C178.419 379.692 202.25 394.191 232.471 402.189C253.176 407.524 274.46 409.451 295.657 407.91C311.361 406.629 326.83 402.888 341.615 396.797C358.116 390.275 373.825 381.449 388.372 370.526C418.088 348.928 439.842 325.054 467.507 298.004C487.025 278.953 510.111 262.298 539.959 246.122C553.512 238.753 567.944 229.317 585.225 220.959C631.982 198.343 681.508 178.723 752.975 173.54C778.588 171.415 804.282 170.785 829.953 171.653C833.974 171.833 837.941 172.072 841.749 172.372C879.439 175.152 916.851 181.525 953.582 191.424C983.325 199.152 1008.46 212.003 1035.01 223.566C1045.66 228.298 1055.75 232.552 1065.12 236.416C1118.11 258.703 1133.26 269.637 1168.78 271.224C1196.05 272.453 1230.66 268.049 1276.06 249.956C1312.94 235.248 1358.02 210.565 1412.28 173.87" stroke="#FFB400" stroke-width="0.8" stroke-miterlimit="10" stroke-linecap="round"/>
<path d="M-99.8059 113.21C-52.7858 136.17 -9.65952 168.126 27.6574 207.659C31.1987 211.463 34.7934 215.238 38.3081 219.132C99.0176 285.034 100.109 322.028 151.446 361.36C177.594 381.4 200.599 396.287 231.327 404.465C252.17 409.846 273.612 411.684 294.939 409.917C310.647 408.45 326.073 404.362 340.71 397.785C357.113 390.712 372.754 381.578 387.334 370.556C418.088 348.389 440.988 325.623 468.2 300.55C488.304 282.098 511.895 267.6 541.398 254.359C555.111 248.189 569.223 240.101 586.131 233.391C633.074 215.118 678.047 202.627 748.769 200.23C773.345 199.391 800.531 198.343 826.12 199.332C830.194 199.481 834.108 199.691 837.996 199.931C875.695 202.022 913.207 207.228 950.228 215.507C980.716 222.247 1005.67 235.008 1032.51 246.331C1043.29 250.885 1053.33 254.809 1062.94 258.523C1116.03 279.282 1131.77 289.467 1167.05 288.838C1194.32 288.359 1228.72 283.236 1274.28 264.874C1311.18 249.896 1356.82 225.722 1412.18 191.034" stroke="#FFB400" stroke-width="0.8" stroke-miterlimit="10" stroke-linecap="round"/>
<path d="M-101.35 124.355C-54.796 146.387 -11.9033 177.148 25.5004 215.329C29.0417 218.984 32.663 222.608 36.1511 226.323C97.6062 289.828 99.5233 324.546 150.088 362.859C176.715 383.078 198.948 398.386 230.235 406.773C251.176 412.167 272.728 413.915 294.14 411.955C309.899 410.284 325.327 405.837 339.858 398.775C356.127 391.121 371.69 381.689 386.322 370.617C418.088 347.821 442.239 326.044 468.866 303.068C489.582 285.095 513.706 272.933 542.809 262.598C556.735 257.626 571.885 254.75 587.01 246.093C636.083 243.787 674.692 222.129 744.428 227.221C769.058 229.049 796.67 226.502 822.152 227.221C826.279 227.371 830.273 227.521 834.108 227.731C875.166 229.917 906.586 232.463 946.846 239.713C978.08 245.434 1002.76 258.135 1029.9 269.099C1040.55 273.472 1050.8 277.187 1060.65 280.691C1113.77 299.623 1130.07 307.651 1165.29 306.153C1192.59 304.925 1226.78 298.155 1272.49 279.643C1309.45 264.665 1355.57 240.701 1412.07 208.02" stroke="#FFB400" stroke-width="0.8" stroke-miterlimit="10" stroke-linecap="round"/>
<path d="M-102.894 135.528C-56.811 156.631 -14.1539 186.177 23.3439 222.967C26.9119 226.502 30.5332 229.947 33.9947 233.482C96.3284 294.531 99.0443 327.032 148.837 364.356C176.129 384.786 197.431 400.482 229.224 409.079C250.346 414.541 272.105 416.189 293.687 413.962C311.235 412.315 325.64 406.383 339.326 399.733C355.474 391.513 370.981 381.783 385.684 370.647C418.461 347.252 443.97 326.613 469.984 305.584C491.286 288.3 516.049 278.325 544.54 270.806C558.759 267.062 573.563 266.193 588.235 258.644C637.308 262.898 671.391 251.006 740.434 254.031C765.197 255.139 793.129 254.48 818.531 255.109C822.685 255.109 826.732 255.319 830.54 255.469C872.291 257.236 902.806 258.135 943.784 264.156C975.737 268.889 1000.18 281.5 1027.61 292.134C1038.26 296.328 1048.59 299.803 1058.68 303.098C1111.93 320.412 1128.74 327.062 1163.83 323.857C1191.12 321.43 1225.07 313.492 1270.98 294.77C1307.96 279.793 1354.61 256.068 1412.23 225.394" stroke="#FFB400" stroke-width="0.8" stroke-miterlimit="10" stroke-linecap="round"/>
<path d="M-104.413 146.671C-58.8219 166.877 -16.4145 195.196 21.1863 230.546C24.7543 233.961 28.4022 237.256 31.9968 240.581C94.9696 299.173 98.5642 329.428 147.505 365.734C175.356 386.373 195.832 402.489 228.158 411.236C249.381 416.758 271.264 418.336 292.941 415.909C310.728 414.081 324.893 407.671 338.5 400.632C355.301 391.944 369.121 381.76 384.697 370.676C418.514 346.712 449.108 332.304 470.756 308.1C495.279 296.327 518.205 273.861 546.137 279.043C560.675 281.739 575.16 277.605 589.326 271.195C638.426 281.979 668.168 275.179 736.333 280.87C761.203 282.937 789.587 282.458 814.776 282.907C819.01 282.907 823.057 282.907 826.891 283.177C869.281 284.525 898.917 283.686 940.589 288.419C973.366 292.104 997.49 304.655 1025.18 314.96C1035.83 318.974 1046.27 322.239 1056.58 325.294C1109.83 341.021 1127.3 346.083 1162.26 341.38C1189.58 337.696 1223.31 328.589 1269.35 309.657C1306.39 294.5 1353.44 271.195 1412.28 242.528" stroke="#FFB400" stroke-width="0.8" stroke-miterlimit="10" stroke-linecap="round"/>
<path d="M-105.957 157.816C-60.8318 177.167 -18.6633 204.313 19.0298 238.275C22.5979 241.541 26.2458 244.536 29.867 247.801C93.7717 303.937 97.9522 331.946 146.174 367.263C174.611 388.082 194.235 404.617 227.066 413.574C248.423 419.121 270.455 420.609 292.249 417.977C310.276 415.97 324.201 408.99 337.755 401.651C354.237 392.665 367.896 382.001 383.793 370.708C418.621 346.084 450.813 333.383 471.662 310.587C497.037 300.103 521.401 279.075 547.788 287.252C562.22 291.716 576.785 289.05 590.391 283.748C639.518 301.062 664.947 299.414 732.206 307.712C757.182 310.707 785.78 310.468 811.022 310.707H823.191C866.273 311.606 895.083 309.12 937.394 312.505C970.944 315.171 994.775 327.692 1022.76 337.637C1033.41 341.471 1043.93 344.497 1054.47 347.313C1107.73 361.511 1125.83 365.016 1160.66 358.756C1187.98 353.813 1221.5 343.538 1267.7 324.427C1304.77 309.12 1352.45 286.204 1412.31 259.514" stroke="#FFB400" stroke-width="0.8" stroke-miterlimit="10" stroke-linecap="round"/>
<path d="M-107.501 168.927C-62.8959 187.455 -21.0086 213.395 16.7668 245.882C20.3614 248.877 24.0093 251.873 27.6306 254.868C92.2276 308.518 97.3133 334.28 144.789 368.698C173.813 389.667 192.718 406.652 225.948 415.788C247.425 421.407 269.602 422.815 291.504 419.952C309.796 417.765 323.456 410.396 336.929 402.578C353.092 393.112 366.618 382.178 382.834 370.705C418.701 345.483 452.464 334.43 472.354 313.071C498.608 303.845 522.945 300.55 549.226 295.428C564.297 298.663 578.196 300.43 591.35 296.267C640.477 320.231 661.538 323.646 727.946 334.459C753.029 338.563 781.999 338.773 807.135 338.444C811.448 338.444 815.575 338.444 819.383 338.444C863.158 337.814 891.01 334.699 934.065 336.796C968.414 338.444 991.926 350.905 1020.23 360.521C1030.88 364.145 1041.53 366.991 1052.18 369.507C1105.44 382.178 1124.08 384.065 1158.85 376.247C1186.2 370.076 1219.48 358.633 1265.89 339.312C1302.98 323.885 1351.1 301.329 1412.15 276.616" stroke="#FFB400" stroke-width="0.8" stroke-miterlimit="10" stroke-linecap="round"/>
<path d="M-109.019 180.07C-64.8537 197.766 -23.1747 222.502 14.743 253.521C18.311 256.516 21.9855 259.302 25.6068 262.118C91.0558 313.251 96.8871 336.796 143.511 370.166C173.12 391.375 191.04 408.749 224.91 418.095C246.57 423.78 268.957 425.088 291.024 421.959C309.663 419.593 323.11 411.774 336.29 403.566C352.266 393.711 365.58 382.418 382.062 370.616C418.914 344.794 454.301 335.388 473.286 315.468C500.392 307.53 525.102 306.481 550.903 303.486C566.161 308.279 579.847 311.694 592.521 308.638C641.648 339.043 658.37 347.79 723.899 361.12C749.088 366.242 778.404 366.602 803.46 366.092C807.827 366.092 811.954 366.092 815.788 366.092C860.202 364.984 887.202 360.101 930.95 360.97C966.044 361.599 989.29 374.031 1017.89 383.287C1028.54 386.762 1039.19 389.278 1050.24 391.704C1103.49 402.907 1122.88 403.147 1157.41 393.771C1184.76 386.342 1217.83 373.761 1264.4 354.23C1301.52 338.683 1350.27 316.487 1412.34 293.78" stroke="#FFB400" stroke-width="0.8" stroke-miterlimit="10" stroke-linecap="round"/>
<path d="M-110.563 191.185C-66.872 208.092 -25.439 231.635 12.5867 261.16C16.1813 264.156 19.8558 266.612 23.4771 269.278C89.8048 317.866 96.3817 339.194 142.18 371.635C172.375 392.993 189.443 410.787 223.845 420.342C245.585 426.063 268.069 427.292 290.199 423.967C308.838 421.391 322.365 413.123 335.465 404.496C351.015 394.251 364.222 382.599 381.104 370.767C418.994 344.316 455.952 336.588 474.058 318.075C502.043 311.395 527.019 312.414 552.422 311.875C567.839 318.195 581.338 323.287 593.507 321.34C642.66 358.305 655.015 372.264 719.692 388.111C744.988 394.281 774.65 394.341 799.573 394.102C803.993 394.102 808.147 394.102 811.981 394.102C857.087 392.514 883.208 387.242 927.649 385.534C963.488 384.157 986.468 397.517 1015.36 406.503C1026.11 409.766 1037.02 412.366 1048.03 414.292C1101.28 424.057 1121.31 422.619 1155.71 411.685C1183.08 402.998 1215.91 389.279 1262.64 369.538C1299.92 353.872 1349.07 332.004 1412.26 311.305" stroke="#FFB400" stroke-width="0.8" stroke-miterlimit="10" stroke-linecap="round"/>
<path d="M-112.108 195.888C-68.8853 212.074 -27.6997 234.466 10.4295 262.508C14.0242 265.204 17.7253 267.661 21.3732 270.147C88.553 316.188 95.9287 335.3 140.848 366.783C171.629 388.35 187.845 406.563 222.753 416.299C244.625 422.076 267.261 423.224 289.507 419.684C308.518 416.898 321.752 408.211 334.772 399.164C349.923 388.32 362.917 376.338 380.198 364.356C419.1 337.397 457.682 331.196 474.883 314.151C503.72 308.729 528.989 311.905 553.992 313.642C569.569 321.52 582.856 328.26 594.545 327.451C643.725 370.946 651.74 390.357 715.511 408.331C740.94 415.55 770.949 415.7 795.818 415.25L808.28 414.981C854.078 414.082 879.294 404.796 924.426 402.999C961.092 401.501 983.725 413.932 1012.91 422.469C1023.78 425.564 1034.81 427.954 1045.93 429.629C1099.05 437.956 1119.84 434.781 1154.08 422.32C1181.48 412.375 1214.1 397.517 1260.99 377.567C1298.27 361.78 1347.98 340.272 1412.29 321.58" stroke="#FFB400" stroke-width="0.8" stroke-miterlimit="10" stroke-linecap="round"/>
<path d="M-113.705 197.774C-70.9672 213.138 -30.0373 234.26 8.19277 260.68C11.814 263.257 15.5152 265.533 19.1631 267.84C87.3281 311.395 95.3428 328.409 139.517 358.844C170.91 380.561 186.247 399.223 221.688 409.169C243.7 414.955 266.49 415.972 288.841 412.164C308.066 409.169 321.139 400.182 333.974 390.596C348.858 379.603 361.772 367.201 379.239 355.01C419.18 327.361 459.333 322.897 475.656 307.291C505.371 303.127 531.865 303.786 555.537 312.503C572.498 318.764 584.374 330.476 595.477 330.476C644.657 380.501 648.305 405.364 711.224 425.764C736.733 434.091 767.141 434.301 791.877 433.672C796.404 433.672 800.611 433.432 804.419 433.313C850.909 431.935 875.22 420.941 921.071 417.826C958.482 415.279 980.849 427.711 1010.33 435.799C1021.3 438.763 1032.44 440.944 1043.66 442.329C1096.76 449.279 1118.22 444.336 1152.33 430.347C1179.73 419.114 1212.13 403.118 1259.18 382.988C1296.46 367.081 1346.73 345.933 1412.15 329.068" stroke="#FFB400" stroke-width="0.8" stroke-miterlimit="10" stroke-linecap="round"/>
<path d="M-115.17 199.602C-72.8987 214.238 -32.2167 234.153 6.11547 258.974C9.76336 261.4 13.4911 263.497 17.1124 265.654C86.1295 306.513 94.8631 321.251 138.185 350.906C170.138 372.774 184.623 391.885 220.729 402.01C242.855 407.969 265.806 408.986 288.281 405.005C307.772 401.8 320.66 392.274 333.334 382.419C347.926 371.066 360.68 358.245 378.6 345.874C419.526 317.626 461.277 314.84 476.747 300.641C507.288 297.646 534.314 300.971 557.32 311.575C574.601 319.543 586.13 332.544 596.834 334.012C646.014 390.597 645.296 420.882 707.39 443.588C733.005 453.024 763.706 453.263 788.415 452.574L801.037 452.095C848.193 450.268 871.625 437.537 918.195 433.163C956.405 429.539 978.452 442.15 1008.25 449.789C1019.33 452.648 1030.58 454.65 1041.9 455.78C1094.94 461.381 1117.1 454.641 1151.07 439.124C1178.47 426.633 1210.64 409.499 1257.88 389.159C1307.88 366.779 1359.55 349.457 1412.28 337.396" stroke="#FFB400" stroke-width="0.8" stroke-miterlimit="10" stroke-linecap="round"/>
<path d="M-116.714 200.201C-74.9007 214.18 -34.4662 232.929 3.95893 256.157C7.63345 258.434 11.3612 260.381 14.9825 262.358C84.9315 300.611 94.3574 313.282 136.854 341.919C169.445 363.936 183.025 383.497 219.531 393.831C241.798 399.816 264.908 400.693 287.483 396.408C307.187 392.993 319.914 383.048 332.456 372.773C346.728 361.06 359.322 347.85 377.508 335.299C419.473 306.452 462.715 305.344 477.386 292.553C508.806 290.935 536.258 296.746 558.705 309.178C576.279 318.913 587.489 333.412 597.687 335.958C646.893 399.074 641.781 434.81 703.023 459.823C728.745 470.367 759.818 470.607 784.421 469.678C789.028 469.498 793.315 469.259 797.123 469.079C845.051 466.773 867.498 452.364 914.734 446.702C953.689 442.029 975.47 454.521 1005.56 461.92C1016.75 464.61 1028.11 466.372 1039.53 467.192C1092.55 471.475 1115.37 462.878 1149.21 445.864C1176.61 432.084 1208.56 413.842 1255.96 393.262C1306.4 370.762 1358.79 354.247 1412.28 343.986" stroke="#FFB400" stroke-width="0.8" stroke-miterlimit="10" stroke-linecap="round"/>
<path d="M-118.259 198.494C-76.8953 211.804 -36.706 229.362 1.80196 250.945C5.47648 253.072 9.23087 254.869 12.8521 256.697C83.7597 292.254 93.9845 302.678 135.523 330.536C168.726 352.703 181.427 372.743 218.466 383.228C240.856 389.282 264.115 390.077 286.79 385.564C306.734 381.91 319.302 371.575 331.683 360.881C345.663 348.899 358.097 335.209 376.603 322.478C419.579 293.032 464.472 293.542 478.212 282.219C510.483 281.859 538.309 290.307 560.276 304.565C578.063 316.128 589.033 332.004 598.752 335.659C647.958 405.335 638.426 446.493 698.869 473.782C724.644 485.465 756.117 485.765 780.64 484.626C785.274 484.417 789.587 484.147 793.395 483.937C841.936 481.181 863.504 465.006 911.432 458.086C951.16 452.334 972.674 464.856 1003 471.895C1014.32 474.426 1025.8 475.978 1037.32 476.538C1090.31 479.534 1113.77 469.05 1147.48 450.537C1174.88 435.56 1206.65 416.089 1254.2 395.33C1305.01 372.601 1358.06 356.802 1412.21 348.27" stroke="#FFB400" stroke-width="0.8" stroke-miterlimit="10" stroke-linecap="round"/>
<path d="M-119.776 196.788C-78.8657 209.484 -38.9295 225.862 -0.354319 245.765C3.34683 247.742 7.10123 249.329 10.7225 251.007C82.6153 283.958 93.2661 292.195 134.192 319.155C167.981 341.442 179.83 361.961 217.374 372.655C239.895 378.797 263.318 379.501 286.098 374.722C306.282 370.798 318.69 360.134 330.938 348.99C344.625 336.559 356.873 322.57 375.698 309.659C419.713 279.704 466.23 281.741 479.037 271.856C508.432 272.249 537.129 281.979 561.821 299.924C579.794 313.344 590.578 330.568 599.791 335.361C649.024 411.567 635.045 458.177 694.716 487.743C720.544 500.594 752.416 500.834 776.833 499.575C781.546 499.336 785.86 499.036 789.694 498.767C838.874 495.472 859.643 477.798 908.264 469.47C948.71 462.671 970.012 475.192 1000.63 481.872C1011.28 484.178 1022.52 484.538 1035.25 485.856C1088.02 491.338 1112.33 475.222 1145.91 455.182C1173.31 438.826 1204.86 418.337 1252.58 397.368C1303.8 374.414 1357.54 359.301 1412.34 352.435" stroke="#FFB400" stroke-width="0.8" stroke-miterlimit="10" stroke-linecap="round"/>
<path d="M-121.321 195.079C-80.8435 207.175 -41.148 222.368 -2.51119 240.551C1.21658 242.348 4.97099 243.816 8.61888 245.314C81.417 275.269 92.8932 281.709 132.86 307.77C167.289 330.207 178.126 351.175 216.309 362.079C238.999 368.301 262.618 368.914 285.539 363.876C305.936 359.683 318.184 348.659 330.299 337.096C343.613 324.306 355.755 309.927 374.899 296.837C419.952 266.162 468.094 269.877 479.969 261.519C510.149 263.3 539.18 275.111 563.392 295.459C581.471 310.706 592.122 329.308 600.829 335.209C650.089 417.946 631.636 470.008 690.535 501.88C716.443 515.869 748.689 516.079 773.079 514.671C777.818 514.402 782.185 514.042 785.993 513.773C835.865 509.968 855.729 490.467 905.069 481.001C946.314 473.123 967.216 485.734 998.263 491.995C1009.86 493.81 1021.53 494.93 1033.22 495.35C1086.08 499.214 1110.92 481.541 1144.39 460.003C1171.76 442.359 1203.13 420.761 1250.9 399.583C1302.51 376.451 1356.89 362.095 1412.26 356.987" stroke="#FFB400" stroke-width="0.8" stroke-miterlimit="10" stroke-linecap="round"/>
<path d="M-122.865 193.37C-82.8029 204.899 -43.3353 218.899 -4.64124 235.308C-0.913466 236.955 2.84093 238.303 6.48883 239.591C80.2455 266.91 92.414 271.164 131.636 296.506C166.57 318.913 176.529 340.391 215.218 351.474C238.003 357.785 261.75 358.317 284.74 353.032C305.376 348.569 317.492 337.186 329.421 325.203C342.521 312.083 354.423 297.285 373.914 284.015C419.952 252.742 469.771 258.194 480.688 251.064C511.739 254.164 541.177 267.997 564.963 290.665C583.095 307.799 593.64 327.72 601.867 334.729C651.127 424.026 628.202 481.72 686.381 515.689C712.343 530.846 744.961 531.026 769.245 529.468C774.037 529.169 778.431 528.779 782.238 528.45C832.83 524.136 851.761 502.958 901.82 492.234C943.837 483.247 964.447 495.948 995.733 501.82C1007.43 503.535 1019.22 504.445 1031.01 504.545C1083.95 506.792 1109.32 487.561 1142.66 464.495C1170.06 445.594 1201.24 422.857 1249.17 401.589C1301.19 378.251 1356.25 364.622 1412.18 361.24" stroke="#FFB400" stroke-width="0.8" stroke-miterlimit="10" stroke-linecap="round"/>
<path d="M-124.356 191.665C-78.7444 204.695 -37.8188 217.965 -6.7718 230.127C-2.99077 231.625 0.763627 232.763 4.38489 233.961C79.1267 258.405 91.9609 260.681 130.224 284.885C165.877 307.531 175.064 329.489 214.179 340.782C237.089 347.169 260.991 347.61 284.074 342.07C304.95 337.307 316.932 325.624 328.701 313.193C341.482 299.713 353.225 284.526 373.035 271.076C420.112 239.204 471.555 246.303 481.54 240.731C513.442 245.183 543.238 261.014 566.56 285.904C584.719 304.925 596.355 324.995 602.959 334.311C664.201 420.972 624.766 493.404 682.254 529.53C708.242 545.885 741.312 546.005 765.49 544.298C770.336 543.968 774.729 543.519 778.564 543.16C829.767 538.337 847.794 515.481 898.598 503.529C941.387 493.434 961.704 506.195 993.31 511.647C1005.09 513.612 1017.01 514.324 1028.91 513.773C1081.87 511.736 1107.83 493.584 1141.06 469.05C1168.44 448.83 1199.38 424.986 1247.57 403.418C1300.04 379.886 1355.79 366.976 1412.26 365.285" stroke="#FFB400" stroke-width="0.8" stroke-miterlimit="10" stroke-linecap="round"/>
<path d="M-125.927 189.957C-79.8089 202.598 -39.1496 214.58 -8.9546 224.914C-5.14694 226.232 -1.39254 227.221 2.22873 228.269C78.009 249.837 91.4556 250.167 128.867 273.592C165.159 296.358 173.44 318.854 213.061 330.327C236.114 336.798 260.189 337.147 283.383 331.345C304.471 326.253 316.294 314.271 327.903 301.39C340.418 287.551 351.867 271.974 372.104 258.344C420.192 225.843 473.1 234.62 482.366 230.456C518.951 236.447 547.709 257.895 568.105 281.38C586.238 302.349 597.714 324.006 603.971 334.101C663.216 429.569 621.279 505.295 678.048 543.608C704.062 561.132 737.585 561.192 761.656 559.335C766.555 558.945 771.002 558.496 774.81 558.107C826.706 552.745 843.854 528.151 895.35 515.001C938.885 503.828 958.909 516.678 990.808 521.711C1002.71 523.526 1014.74 524.017 1026.73 523.179C1079.72 519.974 1106.29 499.844 1139.41 473.783C1166.76 452.275 1197.51 427.322 1245.92 405.544C1283.44 388.68 1337.97 370.377 1412.29 369.598" stroke="#FFB400" stroke-width="0.8" stroke-miterlimit="10" stroke-linecap="round"/>
<path d="M-127.472 188.25C-80.8751 200.591 -40.482 211.136 -11.1124 219.733C-7.27816 220.841 -3.52375 221.68 0.097519 222.728C76.7565 241.211 90.9753 239.623 127.534 262.209C164.093 284.796 171.841 308.071 211.995 319.723C235.169 326.305 259.405 326.572 282.689 320.502C303.991 315.05 315.707 302.829 327.156 289.528C339.378 275.36 350.748 259.364 371.197 245.554C420.324 212.603 474.83 222.878 483.19 220.152C520.655 227.401 549.438 251.365 569.675 276.768C587.754 299.474 598.964 322.869 605.009 333.683C661.964 437.777 617.763 517.009 673.893 557.448C699.907 576.2 733.857 576.17 757.874 574.163C762.8 573.744 767.273 573.235 771.188 572.815C823.749 566.824 840.018 540.703 892.207 526.265C936.514 514.013 956.272 526.954 988.464 531.567C1000.49 533.24 1012.63 533.521 1024.7 532.406C1077.72 528.002 1104.85 505.895 1137.89 478.336C1165.21 455.54 1195.78 429.479 1244.4 407.492C1281.97 390.508 1337.01 372.534 1412.44 373.823" stroke="#FFB400" stroke-width="0.8" stroke-miterlimit="10" stroke-linecap="round"/>
<path d="M-128.989 186.542C-81.9394 198.524 -41.8125 207.69 -13.2685 214.58C-9.40755 215.508 -5.65316 216.227 -2.03189 216.946C75.559 232.553 90.4968 229.078 126.203 250.855C163.774 273.741 170.218 297.286 210.904 309.148C234.21 315.845 258.618 316.02 281.998 309.658C303.512 303.816 315.122 291.355 326.412 277.665C338.34 263.107 349.524 246.752 370.319 232.732C420.431 199.033 476.96 206.731 484.016 209.817C520.442 225.663 551.143 244.775 571.246 272.154C589.246 296.687 600.35 321.7 606.074 333.532C660.527 446.014 614.222 529.02 669.739 571.586C695.754 591.537 730.156 591.387 754.067 589.26C759.073 588.811 763.546 588.271 767.38 587.822C820.634 581.412 835.972 553.493 888.879 537.797C933.932 524.437 953.396 537.497 985.908 541.691C998.053 543.217 1010.31 543.288 1022.47 541.901C1075.51 536.329 1103.23 512.215 1136.14 483.158C1163.46 459.194 1193.84 431.875 1242.64 409.678C1280.24 392.574 1335.84 374.99 1412.37 378.255" stroke="#FFB400" stroke-width="0.8" stroke-miterlimit="10" stroke-linecap="round"/>
<path d="M-130.534 184.835C-83.0049 196.607 -43.171 204.156 -15.4257 209.308C-11.5382 210.027 -7.78377 210.626 -4.13587 211.195C74.3604 223.836 90.0437 218.534 124.872 239.443C163.215 262.509 168.54 286.473 209.838 298.455C233.279 305.237 257.855 305.32 281.332 298.695C303.006 292.434 314.536 279.793 325.639 265.744C337.302 250.766 348.299 234.081 369.414 219.912C420.564 185.614 478.291 198.584 484.842 199.453C524.782 204.815 552.82 238.155 572.71 267.511C586.164 287.991 597.659 310.01 607.006 333.203C658.929 453.863 610.574 540.853 665.585 585.546C691.573 606.695 726.455 606.515 750.286 604.208C755.318 603.729 759.845 603.13 763.599 602.651C817.492 595.611 831.95 566.045 885.604 549.18C931.376 534.682 950.6 547.952 983.405 551.667C995.675 553.046 1008.04 552.895 1020.28 551.217C1073.38 544.478 1101.6 518.267 1134.46 487.802C1161.73 462.37 1191.92 434.122 1240.97 411.746C1278.62 394.522 1334.69 377.267 1412.36 382.539" stroke="#FFB400" stroke-width="0.8" stroke-miterlimit="10" stroke-linecap="round"/>
<path d="M-132.078 183.126C-84.1495 194.39 -44.5552 200.56 -17.5821 204.095C71.6715 215.778 88.0205 207.091 123.541 228.059C162.416 251.035 167.023 275.718 208.747 287.97C232.319 294.866 257.068 294.866 280.64 287.97C325.32 274.19 326.545 235.189 368.509 207.091C420.671 172.163 479.969 187.53 485.667 189.118C561.608 210.086 597.021 303.876 608.152 332.903C657.491 461.471 607.086 552.684 661.405 599.504C692.932 626.674 738.304 620.473 759.925 617.478C814.484 609.989 828.064 578.716 882.409 560.563C943.651 540.073 957.151 569.549 1018.21 560.563C1115.61 546.094 1131.24 463.508 1239.21 413.782C1276.89 396.438 1333.5 379.543 1412.29 386.822" stroke="#FFB400" stroke-width="0.8" stroke-miterlimit="10" stroke-linecap="round"/>
<path d="M-130.64 186.871C-83.5638 198.135 -44.6352 204.844 -17.6621 208.559C69.2216 220.9 86.183 212.753 121.49 233.751C159.647 256.517 164.733 280.482 205.419 292.823C228.498 299.683 252.725 300.033 275.953 293.842C320.048 282.129 321.752 244.086 363.077 217.066C414.121 183.456 471.635 197.446 478.292 198.674C540.572 210.027 574.921 279.074 591.829 315.919C595.29 323.437 597.793 329.908 599.817 334.581C650.408 456.289 602.639 543.938 656.16 588.152C688.112 614.483 733.857 607.862 756.383 605.017C777.026 602.467 797.036 595.449 815.309 584.348C833.948 573.833 851.388 561.971 880.066 554.093C888.853 551.696 896.681 550.378 903.71 549.24C946.314 542.32 962.742 559.365 1014.08 549.09C1033.94 545.168 1053.06 537.48 1070.63 526.354C1118.32 496.399 1148.15 442.48 1221.98 403.118C1226.31 400.802 1230.84 398.545 1235.56 396.348C1273.59 378.555 1331.05 360.851 1411.03 367.651" stroke="#FFB400" stroke-width="0.8" stroke-miterlimit="10" stroke-linecap="round"/>
<path d="M-129.202 190.616C-83.0842 201.879 -44.7148 208.859 -17.715 212.993C66.7457 225.963 84.2396 218.414 119.44 239.473C156.905 261.76 162.443 285.514 201.984 297.646C224.589 304.487 248.314 305.206 271.214 299.743C314.643 289.948 316.959 253.133 357.619 227.012C407.571 194.93 463.567 205.264 470.863 208.23C528.484 231.445 565.868 283.867 583.282 318.585C586.823 325.654 589.273 331.855 591.27 336.228C643.033 451.227 598.087 535.101 650.755 576.799C682.973 602.261 729.224 595.251 752.656 592.526C773.461 590.123 793.739 583.687 812.593 573.504C831.525 564.008 849.232 553.734 877.563 547.653C886.377 545.735 894.258 545.016 901.288 543.878C943.758 536.959 959.468 550.408 1009.77 537.588C1029.4 532.498 1048.19 523.966 1065.47 512.305C1111.37 482.35 1142.69 426.543 1218.02 385.864C1222.41 383.528 1226.99 381.191 1231.75 378.915C1270.1 360.672 1328.41 342.16 1409.62 348.45" stroke="#FFB400" stroke-width="0.8" stroke-miterlimit="10" stroke-linecap="round"/>
<path d="M-127.764 194.361C-82.6049 205.594 -44.8213 212.993 -17.8482 217.576C64.2161 231.086 82.2958 224.226 117.337 245.285C154.082 267.212 160.1 290.517 198.682 302.589C220.802 309.371 244.004 310.395 266.528 305.584C309.131 297.646 312.193 262.059 352.187 236.957C401.047 206.283 455.26 214.131 463.487 217.726C509.241 238.356 548.137 274.523 574.761 321.191C578.383 327.811 580.806 333.742 582.749 337.846C635.631 445.895 593.56 526.325 645.296 565.506C677.887 590.129 724.565 582.671 748.902 580.124C769.875 577.822 790.416 571.954 809.824 562.72C829.102 554.243 847.102 545.586 875.007 541.242C883.9 539.865 891.808 539.715 898.838 538.576C941.255 531.627 956.113 541.572 1005.35 526.145C1024.71 519.861 1043.18 510.5 1060.2 498.347C1104.32 468.182 1137.26 410.787 1213.91 368.67C1218.33 366.274 1222.97 363.887 1227.81 361.511C1266.48 342.849 1325.67 323.528 1408.08 329.339" stroke="#FFB400" stroke-width="0.8" stroke-miterlimit="10" stroke-linecap="round"/>
<path d="M-126.326 198.075C-82.1256 209.338 -44.9011 217.126 -17.8748 222.039C61.7931 236.088 80.4852 229.917 115.26 251.006C151.26 272.603 157.863 295.399 195.274 307.441C216.93 314.258 239.645 315.689 261.841 311.635C303.832 305.644 307.427 271.195 346.781 247.081C394.55 217.576 446.34 229.318 456.112 227.311C512.428 240.102 547.841 293.213 566.267 323.887C569.968 330.028 572.338 335.659 574.415 339.523C628.468 440.712 589.273 517.488 640.051 554.093C673.068 577.877 720.091 569.999 745.36 567.573C766.519 565.382 787.332 560.085 807.268 551.816C826.919 544.357 845.131 537.348 872.69 534.712C881.637 533.843 889.572 534.292 896.655 533.154C939.018 526.205 953.024 532.525 1001.35 514.612C1021.83 507.003 1038.63 496.1 1055.35 484.237C1097.74 454.012 1132.14 394.701 1210.27 351.356C1214.7 348.899 1219.39 346.453 1224.33 344.017C1263.33 324.875 1323.38 304.745 1406.99 310.077" stroke="#FFB400" stroke-width="0.8" stroke-miterlimit="10" stroke-linecap="round"/>
<path d="M-124.915 201.82C-81.7531 213.053 -45.0078 221.231 -17.8484 226.323C59.3698 240.881 78.5412 235.549 113.316 256.518C148.57 277.846 155.573 300.103 192.052 312.085C213.204 318.898 235.386 320.673 257.181 317.297C298.373 312.864 302.687 279.943 341.376 256.847C388.026 229.019 437.925 239.713 448.789 236.807C503.428 248.43 538.815 297.856 557.8 326.493C561.581 332.185 563.924 337.547 566.054 341.141C621.252 435.411 585.013 508.561 634.778 542.68C668.222 565.626 715.618 557.299 741.765 555.052C768.392 552.775 787.164 546.575 804.685 540.943C824.708 534.503 843.347 525.157 870.32 528.182C878.294 529.149 886.344 528.998 894.285 527.733C936.621 520.783 949.722 523.629 997.118 503.05C1016.96 494.452 1033.46 482.62 1050.37 470.099C1091.03 439.904 1126.9 378.765 1206.46 334.012C1210.95 331.496 1215.69 328.98 1220.68 326.463C1260.01 306.903 1320.9 285.964 1405.74 290.787" stroke="#FFB400" stroke-width="0.8" stroke-miterlimit="10" stroke-linecap="round"/>
<path d="M-123.478 205.595C-81.1678 216.828 -45.0883 225.395 -18.0353 230.817C56.8663 245.795 76.6501 241.241 111.265 262.27C145.88 283.299 153.309 304.986 188.696 316.998C219.53 327.453 245.225 325.206 252.601 323.259C291.929 312.775 298 288.96 336.05 266.883C381.582 240.463 429.644 250.198 441.519 246.424C494.454 256.908 529.788 302.53 549.412 329.19C553.246 334.432 555.563 339.525 557.719 342.88C614.062 430.229 580.858 499.665 629.612 531.418C663.535 553.525 711.224 544.748 738.303 542.651C765.383 540.554 784.368 534.923 802.208 530.16C822.578 524.738 841.856 516.62 868.057 521.802C875.964 523.448 884.054 523.66 892.021 522.431C934.304 515.482 946.526 514.853 992.964 491.637C1012.19 482.052 1028.32 469.261 1045.26 456.2C1084.21 426.245 1121.57 363.04 1202.54 316.878C1207.07 314.302 1211.86 311.726 1216.92 309.15C1256.6 289.14 1318.35 267.392 1404.38 271.706" stroke="#FFB400" stroke-width="0.8" stroke-miterlimit="10" stroke-linecap="round"/>
<path d="M-122.04 209.249C-80.6885 220.572 -45.1947 229.559 -18.1151 235.19C54.3901 250.527 74.7597 246.843 109.215 267.871C143.031 288.541 151.019 309.809 185.368 321.791C215.35 332.245 240.326 330.957 247.808 329.1C286.364 319.454 293.074 297.887 330.512 276.828C374.925 251.785 421.043 260.622 434.037 255.859C485.294 265.175 520.495 306.783 540.785 331.736C543.78 335.796 546.588 340.025 549.199 344.407C606.633 424.837 576.545 490.529 624.127 519.945C658.556 541.183 706.538 531.927 734.522 530.04C761.442 528.183 781.226 523.06 799.412 519.196C820.155 514.793 840.072 508.113 865.474 515.212C873.338 517.555 881.533 518.145 889.598 516.949C931.855 509.97 943.171 505.926 988.677 480.015C1007.32 469.44 1023.03 455.751 1040.09 442.031C1077.37 412.076 1116.19 347.073 1198.58 299.504C1203.14 296.868 1207.99 294.232 1213.12 291.596C1253.06 271.137 1315.71 248.58 1402.97 252.415" stroke="#FFB400" stroke-width="0.8" stroke-miterlimit="10" stroke-linecap="round"/>
<path d="M-120.603 212.932C-80.2094 224.195 -45.3015 233.481 -18.1686 239.592C51.9135 255.348 72.8689 252.503 107.298 273.531C140.395 293.871 148.862 314.6 182.146 326.522C211.436 336.976 235.56 336.647 243.255 334.879C281.065 326.163 288.521 306.751 325.213 286.681C368.508 263.047 412.842 270.955 426.794 265.383C476.347 273.531 511.362 311.425 532.424 334.28C535.446 338.004 538.281 341.915 540.918 345.993C599.497 419.473 572.524 481.361 618.934 508.5C653.869 528.9 702.117 519.224 731.007 517.487C758.167 515.809 778.403 511.226 796.909 508.26C818.905 504.857 841.22 504.988 863.184 508.65C872.556 509.998 880.438 512.634 887.387 511.645C929.591 504.636 940.002 497.237 984.576 468.6C1002.52 457.067 1017.94 442.389 1035.17 428.07C1070.82 398.355 1111.03 331.285 1194.93 282.308C1199.51 279.642 1204.43 276.916 1209.65 274.19C1249.97 253.221 1313.5 229.916 1401.87 233.271" stroke="#FFB400" stroke-width="0.8" stroke-miterlimit="10" stroke-linecap="round"/>
<path d="M-119.031 218.084C-79.5962 229.317 -45.2474 239.053 -18.1145 245.433C49.4647 261.519 71.0059 259.512 105.115 280.631C137.52 300.641 146.44 320.861 178.685 332.753C207.016 343.207 230.501 343.806 238.41 342.159C275.528 334.46 283.542 317.086 319.675 298.035C361.825 275.808 404.322 282.787 419.286 276.347C467.215 283.327 501.83 317.266 523.771 338.414C526.821 341.797 529.693 345.378 532.371 349.138C591.882 415.669 568.291 473.722 613.477 498.615C648.971 518.176 697.432 508.081 727.254 506.493C754.6 505.025 775.315 500.982 794.141 498.915C815.602 496.548 835.599 498.555 860.708 503.677C870.214 505.625 878.069 508.77 884.992 507.632C927.142 500.622 936.675 489.868 980.316 458.445C997.624 445.954 1012.67 430.347 1030.03 415.369C1064.08 385.953 1105.68 316.817 1190.88 266.402C1195.52 263.646 1200.47 260.89 1205.77 258.074C1246.4 236.746 1310.7 212.572 1400.38 215.418" stroke="#FFB400" stroke-width="0.8" stroke-miterlimit="10" stroke-linecap="round"/>
<path d="M-117.727 231.055C-79.2506 242.288 -45.4877 252.323 -18.3282 259.123C46.9878 275.508 69.1148 274.49 103.064 295.459C134.75 315.139 144.15 334.88 175.356 346.712C202.835 357.166 225.575 358.694 233.723 357.166C270.148 350.546 278.749 335.149 314.243 317.116C355.248 296.148 395.907 302.378 411.91 295.009C458.081 301 489.794 335.629 515.276 350.217C518.658 354.291 521.587 357.586 523.93 359.922C584.453 419.473 564.243 473.752 608.151 496.398C644.23 515.061 692.904 504.546 723.632 503.138C751.164 501.88 772.359 498.376 791.504 497.147C813.338 495.799 833.708 499.783 858.205 506.284C867.844 508.83 875.672 512.484 882.568 511.316C924.692 504.307 933.319 490.348 976.002 456.019C992.697 442.629 1007.37 426.064 1024.86 410.397C1057.35 381.31 1100.3 310.047 1186.91 258.224C1191.58 255.448 1196.6 252.613 1201.96 249.717C1242.94 228.089 1308.17 203.107 1398.97 205.593" stroke="#FFB400" stroke-width="0.8" stroke-miterlimit="10" stroke-linecap="round"/>
<path d="M-116.368 242.738C-78.7705 253.971 -45.5933 264.335 -18.4072 271.495C44.5389 288.15 67.3582 288.15 101.015 309.238C131.982 328.559 141.86 347.821 172.002 359.623C198.629 370.047 220.623 372.384 229.037 371.096C264.797 365.614 273.957 352.164 308.918 335.15C348.858 315.679 387.601 320.861 404.642 312.623C449.109 317.296 480.502 348.779 506.863 360.911C509.625 364.011 512.551 366.922 515.623 369.628C577.078 422.26 560.33 472.464 602.933 493.104C639.625 510.867 688.459 499.933 720.091 498.735C747.837 497.657 769.511 494.691 788.949 494.422C811.155 494.092 831.925 500.113 855.889 507.931C865.634 511.107 873.462 515.241 880.359 513.923C922.403 506.883 930.178 489.599 971.902 452.484C987.879 438.196 1002.28 420.702 1019.83 404.346C1050.74 375.649 1095.03 302.199 1183.05 248.938C1187.74 245.943 1192.83 243.187 1198.26 240.251C1239.56 217.995 1305.56 192.323 1397.67 194.09" stroke="#FFB400" stroke-width="0.8" stroke-miterlimit="10" stroke-linecap="round"/>
<path d="M-114.877 254.42C-78.2647 265.653 -45.6467 276.347 -18.4872 283.925C42.0892 300.76 65.3345 301.749 98.9644 322.867C129.213 341.859 139.57 360.641 168.674 372.383C194.502 382.808 215.697 383.676 224.351 384.905C259.365 389.937 269.164 369.028 303.379 353.062C342.122 335.089 379.08 339.253 397.16 330.116C439.949 333.621 470.97 361.839 498.342 371.515C501.132 374.31 504.085 376.892 507.182 379.243C569.543 424.925 556.309 471.086 597.714 489.688C634.992 506.523 684.012 495.23 716.577 494.181C744.535 493.313 766.662 490.916 786.419 491.515C808.999 492.204 830.114 500.322 853.572 509.488C863.451 513.293 871.226 517.876 878.122 516.738C920.14 509.668 927.063 489.149 967.775 449.159C983.246 433.971 997.198 415.519 1014.93 398.474C1044.22 370.197 1089.91 294.53 1179.35 239.711C1184.09 236.836 1189.21 233.84 1194.72 230.725C1236.33 208.019 1303.22 181.419 1396.52 182.797" stroke="#FFB400" stroke-width="0.8" stroke-miterlimit="10" stroke-linecap="round"/>
<path d="M-113.439 266.132C-77.7853 277.485 -45.7797 288.359 -18.5669 296.327C39.6396 313.342 63.4441 315.379 96.9142 336.527C126.443 355.159 137.281 373.342 165.319 385.324C190.322 395.749 210.798 397.306 219.638 398.894C253.774 404.885 264.344 386.073 297.948 371.125C335.545 354.381 370.693 357.795 389.784 347.76C430.869 350.127 461.677 375.02 489.742 382.269C492.558 384.768 495.54 387.021 498.662 389.009C561.874 427.771 552.315 469.888 592.176 486.453C630.172 502.299 679.272 490.647 712.716 489.808C740.887 489.119 763.493 487.292 783.57 488.79C806.523 490.497 827.984 500.772 850.936 511.046C860.921 515.54 868.696 520.572 875.566 519.404C917.53 512.335 923.655 488.61 963.435 445.714C978.293 429.628 991.873 410.247 1009.71 392.484C1037.62 364.655 1084.48 286.742 1175.33 230.725C1180.11 227.75 1185.28 224.754 1190.86 221.739C1232.82 198.613 1300.53 171.204 1395.06 172.103" stroke="#FFB400" stroke-width="0.8" stroke-miterlimit="10" stroke-linecap="round"/>
<path d="M-112.001 277.815C-77.3858 289.018 -45.8861 300.341 -18.6467 308.729C37.2699 325.863 61.5537 329.038 94.864 350.157C123.701 368.46 134.991 386.313 161.991 398.085C186.141 408.51 205.898 410.756 214.952 412.703C248.182 419.803 259.552 402.908 292.516 389.009C328.968 373.642 362.279 376.158 382.408 365.224C421.816 366.423 452.171 388.05 481.248 392.843C484.098 395.034 487.109 396.948 490.248 398.565C554.152 430.527 548.401 468.27 586.85 483.008C625.3 497.746 674.719 486.004 709.095 485.255C737.452 484.746 760.538 483.458 780.987 485.854C804.286 488.58 826.093 500.832 848.567 512.514C858.658 517.697 866.433 523.118 873.276 521.98C915.187 514.881 920.539 488.011 959.175 442.149C973.474 425.195 986.681 404.885 1004.63 386.373C1031.04 359.084 1079.18 278.863 1171.42 221.289C1176.21 218.294 1181.46 215.298 1187.1 212.033C1229.33 188.339 1297.92 160.121 1393.65 160.66" stroke="#FFB400" stroke-width="0.8" stroke-miterlimit="10" stroke-linecap="round"/>
<path d="M-110.563 289.468C-76.8266 300.671 -45.966 312.293 -18.7 321.07C34.7669 338.325 59.6631 342.608 92.8137 363.757C120.932 381.73 132.754 399.074 158.635 410.696C181.987 421.121 201.026 424.056 210.265 426.363C242.617 434.421 254.732 419.623 287.111 406.742C322.391 392.723 353.864 394.401 374.979 382.568C412.683 382.568 442.692 400.931 472.674 403.268C475.581 405.149 478.628 406.743 481.78 408.03C546.643 433.253 544.513 466.563 581.525 479.504C620.906 493.253 670.166 481.061 705.473 480.642C734.017 480.283 757.582 479.564 778.298 482.859C801.969 486.603 824.07 501.161 846.09 513.892C856.288 519.883 864.037 525.605 870.88 524.437C912.764 517.367 917.344 487.322 954.914 438.495C968.627 420.672 981.541 399.553 999.488 380.172C1024.46 353.422 1073.83 270.895 1167.48 211.883C1172.32 208.828 1177.6 205.673 1183.32 202.418C1225.92 178.453 1295.37 149.397 1392.32 149.307" stroke="#FFB400" stroke-width="0.8" stroke-miterlimit="10" stroke-linecap="round"/>
<path d="M-109.125 301.21C-76.3472 312.414 -46.0724 324.306 -18.7798 333.532C32.344 350.846 57.7994 356.298 90.7635 377.506C118.163 395.09 130.411 411.985 155.307 423.547C171.605 430.737 188.425 436.33 205.579 440.262C237.052 449.249 249.913 436.548 281.679 424.716C315.788 412.045 345.583 412.734 367.657 400.122C403.657 399.014 433.346 414.052 464.233 413.962C467.186 415.526 470.261 416.779 473.42 417.706C538.869 436.159 540.679 464.946 576.2 476.119C616.326 488.73 665.64 477.077 701.826 476.119C730.583 475.37 754.6 475.819 775.662 479.983C799.626 484.746 822.099 501.521 843.667 515.39C853.945 521.98 861.72 528.211 868.537 527.043C910.368 519.943 914.229 486.783 950.708 434.96C963.835 416.298 976.35 394.191 994.429 374.091C1017.94 347.91 1068.53 263.047 1163.59 202.598C1168.46 199.602 1173.79 196.277 1179.57 192.952C1222.52 168.479 1292.81 138.643 1390.96 138.074" stroke="#FFB400" stroke-width="0.8" stroke-miterlimit="10" stroke-linecap="round"/>
<path d="M-107.687 312.924C-75.7347 324.127 -46.1522 336.259 -18.8595 345.875C29.921 363.189 55.9089 369.839 88.74 391.077C115.367 408.302 128.121 424.747 151.952 436.25C167.836 443.633 184.197 449.641 200.893 454.223C231.54 464.078 245.093 453.504 276.247 442.78C309.185 431.397 337.063 431.367 360.282 417.767C394.604 415.461 423.947 427.233 455.713 424.687C458.72 425.922 461.822 426.845 464.979 427.443C531.174 439.275 536.872 463.389 570.874 472.855C611.773 484.238 661.086 472.436 698.204 471.717C727.175 471.178 751.645 472.166 773.026 477.229C797.416 483.01 820.076 502.002 841.271 517.009C851.576 524.318 859.404 530.938 866.194 529.77C907.998 522.641 911.14 486.365 946.474 431.547C959.069 412.016 971.237 389.04 989.344 368.162C1011.5 342.58 1063.26 255.35 1159.76 193.433C1164.66 190.287 1170.06 186.992 1175.92 183.577C1219.21 158.685 1290.41 128.04 1389.71 126.962" stroke="#FFB400" stroke-width="0.8" stroke-miterlimit="10" stroke-linecap="round"/>
<path d="M-106.276 324.634C-75.389 335.808 -46.2325 348.209 -18.9398 358.364C27.4177 375.708 54.0446 383.556 86.6893 404.825C112.651 421.719 125.831 437.776 148.624 449.129C164.091 456.567 179.978 462.851 196.179 467.94C226.028 478.634 240.274 470.247 270.735 460.571C302.527 450.536 328.569 449.668 352.826 435.139C385.444 431.695 414.441 440.172 447.138 435.139C450.198 436.056 453.327 436.648 456.484 436.907C523.425 442.179 532.93 461.41 565.469 469.288C607.14 479.413 656.453 467.491 694.503 467.072C723.659 466.712 748.609 468.24 770.31 474.201C795.073 481.001 817.972 502.209 838.768 518.355C849.125 526.413 856.98 533.333 863.77 532.224C905.521 525.095 908.024 485.674 942.187 427.86C954.222 407.491 966.151 383.676 984.177 361.959C1005.05 337.006 1057.88 247.53 1155.81 184.025C1160.74 180.819 1166.2 177.464 1172.14 173.99C1215.75 148.677 1287.75 117.194 1388.32 115.727" stroke="#FFB400" stroke-width="0.8" stroke-miterlimit="10" stroke-linecap="round"/>
<path d="M-104.838 336.347C-74.9096 347.55 -46.259 360.131 -19.0196 370.825C25.1279 388.109 52.1542 397.246 84.6391 418.514C109.908 435.049 123.541 450.596 145.269 461.949C160.327 469.556 175.761 476.187 191.493 481.809C220.543 493.342 235.428 487.111 265.383 478.514C296.004 469.767 320.234 468.09 345.53 452.693C376.471 448.08 405.121 453.262 438.724 445.833C441.849 446.302 444.998 446.553 448.15 446.582C515.783 449.967 529.203 459.613 560.223 465.963C602.667 474.65 652.006 462.189 690.935 462.608C720.225 462.938 745.733 464.525 767.754 471.385C792.89 479.203 815.975 502.658 836.425 519.912C846.836 528.719 854.744 536.028 861.507 534.89C903.232 527.761 905.095 485.254 938.033 424.445C949.536 403.207 961.119 378.554 979.198 355.937C998.636 331.614 1052.72 239.621 1151.93 174.798C1156.92 171.523 1162.41 168.118 1168.41 164.583C1212.34 138.762 1285.22 106.5 1386.99 104.463" stroke="#FFB400" stroke-width="0.8" stroke-miterlimit="10" stroke-linecap="round"/>
<path d="M-103.4 348.031C-74.4302 359.204 -46.3388 371.995 -19.0994 383.198C22.7582 400.393 50.2638 410.817 82.5889 432.145C107.139 448.321 121.225 463.418 141.94 474.712C161.112 485.196 176.555 491.187 186.807 495.68C215.085 507.992 230.608 503.948 259.951 496.489C286.494 489.633 312.616 480.858 338.154 470.218C366.166 459.135 395.402 448.111 430.204 456.469C433.363 456.963 436.573 456.883 439.71 456.229C508.247 448.621 525.369 457.727 554.898 462.61C598.14 469.739 647.453 457.457 687.314 458.116C716.896 458.596 742.778 460.782 765.118 468.511C790.6 477.497 813.898 503.079 834.002 521.442C844.439 530.998 852.427 538.666 859.191 537.498C900.835 530.338 902.113 484.717 933.746 420.912C944.716 398.805 956.033 373.373 974.033 349.888C992.033 326.403 1047.44 231.984 1147.96 165.484C1152.97 162.218 1158.61 158.714 1164.6 155.089C1208.88 128.848 1282.59 95.7776 1385.61 93.2314" stroke="#FFB400" stroke-width="0.8" stroke-miterlimit="10" stroke-linecap="round"/>
<path d="M-101.963 359.744C-73.9514 370.917 -46.3925 383.708 -19.1531 395.69C20.3879 412.794 48.3995 424.537 80.5382 445.895C104.502 461.711 118.934 476.359 138.585 487.593C156.931 498.107 171.842 504.667 182.12 509.55C209.652 522.64 225.762 520.753 254.519 514.432C282.77 508.232 301.515 500.324 330.778 487.772C357.139 476.449 385.204 474.262 421.709 467.103C425.064 466.444 428.286 466.504 431.295 465.905C500.685 451.886 521.534 455.78 549.572 459.255C593.586 464.677 642.926 452.755 683.665 453.623C713.461 454.282 739.822 457.038 762.481 465.605C788.336 475.491 811.794 503.409 831.578 522.91C842.043 533.214 850.217 541.242 856.847 540.074C898.438 532.915 899.157 484.148 929.592 417.258C940.056 394.282 951.133 368.131 969.026 343.688C985.881 320.682 1042.25 224.016 1144.15 156.078C1149.21 152.753 1154.8 149.188 1160.95 145.474C1205.55 118.813 1280.14 84.9341 1384.33 81.8787" stroke="#FFB400" stroke-width="0.8" stroke-miterlimit="10" stroke-linecap="round"/>
<path d="M-100.392 371.425C-73.3392 382.598 -46.2862 395.629 -19.1001 408C18.1777 424.985 46.6419 437.956 78.6209 459.464C101.76 474.92 116.777 489.119 135.39 500.323C152.883 510.807 167.155 517.906 177.567 523.298C204.38 537.167 221.075 537.437 249.246 532.285C276.299 527.312 293.421 519.254 323.536 505.325C348.325 493.762 375.884 488.34 413.322 477.766C416.65 476.838 419.952 476.448 423.014 475.579C493.309 455.18 517.912 459.314 544.38 455.899C589.467 450.328 634.83 448.087 680.177 449.189C710.186 449.998 736.999 453.323 760.058 462.848C786.286 473.752 809.877 503.917 829.288 524.526C839.752 535.58 847.927 543.937 854.637 542.799C896.202 535.61 896.335 483.727 925.518 413.991C935.476 390.177 946.367 363.307 964.1 337.875C979.677 315.558 1037.08 216.407 1140.4 147.06C1145.48 143.675 1151.05 140.051 1157.36 136.276C1202.31 109.137 1277.71 74.4486 1383.13 70.9438" stroke="#FFB400" stroke-width="0.8" stroke-miterlimit="10" stroke-linecap="round"/>
<path d="M-99.0873 379.843C-72.9929 391.016 -46.4458 404.137 -19.2064 417.137C15.8347 433.942 44.6983 448.41 76.6506 469.828C99.0972 484.806 114.567 498.705 132.141 509.819C148.783 520.333 162.443 527.972 172.934 533.783C199.108 548.401 216.309 550.827 243.895 546.843C269.776 543.099 285.353 535.041 316.24 519.344C339.512 507.512 366.671 498.975 404.908 484.896C408.236 483.668 411.538 482.859 414.68 481.691C485.934 454.971 514.185 452.454 539.134 449.039C584.742 442.726 630.694 440.093 676.636 441.161C706.831 442.15 734.124 446.044 757.395 456.468C784.022 468.45 807.72 500.772 826.945 522.37C837.383 534.172 845.584 542.919 852.374 541.751C893.885 534.532 893.513 479.534 921.364 406.773C930.817 382.06 941.601 354.531 959.095 328.11C973.447 306.452 1031.87 204.844 1136.59 134.06C1141.7 130.615 1147.43 126.931 1153.71 123.096C1198.98 95.5076 1275.26 60.0106 1381.88 55.9966" stroke="#FFB400" stroke-width="0.8" stroke-miterlimit="10" stroke-linecap="round"/>
<path d="M-97.7294 384.367C-72.5936 395.54 -46.4991 408.661 -19.4728 422.35C13.3316 438.976 42.7278 454.762 74.3074 476.27C96.0616 490.978 111.958 504.368 128.493 515.391C144.31 525.936 157.357 534.053 167.954 540.464C193.49 555.831 211.197 560.384 238.17 557.598C262.879 555.052 277.018 547.204 308.571 529.68C330.352 517.698 357.192 505.955 396.094 488.342C399.449 486.844 402.777 485.616 405.946 484.148C478.265 451.048 509.951 441.791 533.516 438.466C579.394 432.026 629.213 427.892 672.695 429.48C703.103 430.588 730.848 435.081 754.466 446.404C781.439 459.345 805.244 493.943 824.229 516.829C834.667 529.41 843.054 538.457 849.737 537.289C891.222 530.099 890.317 471.926 916.864 396.199C925.811 370.618 936.541 342.46 953.716 314.991C966.869 294.022 1026.27 189.958 1132.41 117.735C1137.57 114.261 1143.33 110.486 1149.69 106.562C1195.3 78.554 1272.41 42.2482 1380.25 37.665" stroke="#FFB400" stroke-width="0.8" stroke-miterlimit="10" stroke-linecap="round"/>
<path d="M-96.2385 388.679C-72.0346 399.822 -46.3662 412.942 -19.473 427.381C11.9671 443.954 42.6125 462.372 72.3368 482.558C93.3987 496.937 109.615 509.908 125.245 520.811C140.182 531.445 152.644 540.013 163.348 546.932C188.271 563.078 206.457 569.728 232.817 568.171C256.382 566.793 269.163 559.334 301.275 539.833C321.672 527.461 348.219 512.723 387.68 491.605C391.035 489.808 394.39 488.16 397.612 486.423C470.969 446.942 505.85 429.358 528.27 427.71C575.107 424.355 624.74 415.728 669.153 417.615C699.774 418.844 727.972 423.996 751.91 436.188C779.256 450.147 803.14 487.112 821.886 511.076C832.27 524.406 840.791 533.812 847.474 532.674C888.906 525.424 887.415 464.106 912.71 385.414C921.643 355.936 933.732 327.79 948.71 301.599C960.692 281.259 1021.06 174.768 1128.57 101.108C1133.77 97.5736 1139.57 93.7393 1146.02 89.7552C1191.95 61.2977 1269.94 24.1832 1378.97 19.1807" stroke="#FFB400" stroke-width="0.8" stroke-miterlimit="10" stroke-linecap="round"/>
<path d="M-94.8003 392.814C-37.7588 420.175 17.4187 452.213 70.2868 488.67C155.333 547.353 178.579 579.045 227.386 578.536C262.933 578.147 271.32 561.132 379.159 494.662C460.265 444.666 500.818 419.773 522.945 416.778C602.453 406.324 689.363 393.383 749.274 425.764C792.463 449.1 826.492 530.847 845.131 527.612C900.382 517.967 878.574 406.294 943.651 287.97C954.488 268.26 1015.78 159.372 1124.71 84.2746C1167 55.1281 1251.88 6.66055 1377.67 0.399902" stroke="#FFB400" stroke-width="0.8" stroke-miterlimit="10" stroke-linecap="round"/>
</g>
</svg>
